<svg width="1920" height="225" viewBox="0 0 1920 225" fill="none" xmlns="http://www.w3.org/2000/svg">
<rect width="1920" height="225" fill="white"/>
<path d="M224.175 106.675H215.175L215.2 122H212.725V104.5H224.2L224.175 106.675ZM231.503 108.625C233.336 108.625 234.736 109.075 235.703 109.975C236.686 110.875 237.178 112.217 237.178 114V122H234.903V120.25C234.503 120.867 233.928 121.342 233.178 121.675C232.445 121.992 231.57 122.15 230.553 122.15C229.07 122.15 227.878 121.792 226.978 121.075C226.095 120.358 225.653 119.417 225.653 118.25C225.653 117.083 226.078 116.15 226.928 115.45C227.778 114.733 229.128 114.375 230.978 114.375H234.778V113.9C234.778 112.867 234.478 112.075 233.878 111.525C233.278 110.975 232.395 110.7 231.228 110.7C230.445 110.7 229.678 110.833 228.928 111.1C228.178 111.35 227.545 111.692 227.028 112.125L226.028 110.325C226.711 109.775 227.528 109.358 228.478 109.075C229.428 108.775 230.436 108.625 231.503 108.625ZM230.953 120.3C231.87 120.3 232.661 120.1 233.328 119.7C233.995 119.283 234.478 118.7 234.778 117.95V116.1H231.078C229.045 116.1 228.028 116.783 228.028 118.15C228.028 118.817 228.286 119.342 228.803 119.725C229.32 120.108 230.036 120.3 230.953 120.3ZM248.525 108.625C249.808 108.625 250.958 108.908 251.975 109.475C252.991 110.042 253.783 110.833 254.35 111.85C254.933 112.867 255.225 114.042 255.225 115.375C255.225 116.708 254.933 117.892 254.35 118.925C253.783 119.942 252.991 120.733 251.975 121.3C250.958 121.867 249.808 122.15 248.525 122.15C247.575 122.15 246.7 121.967 245.9 121.6C245.116 121.233 244.45 120.7 243.9 120V126.85H241.5V108.75H243.8V110.85C244.333 110.117 245.008 109.567 245.825 109.2C246.641 108.817 247.541 108.625 248.525 108.625ZM248.325 120.05C249.175 120.05 249.933 119.858 250.6 119.475C251.283 119.075 251.816 118.525 252.2 117.825C252.6 117.108 252.8 116.292 252.8 115.375C252.8 114.458 252.6 113.65 252.2 112.95C251.816 112.233 251.283 111.683 250.6 111.3C249.933 110.917 249.175 110.725 248.325 110.725C247.491 110.725 246.733 110.925 246.05 111.325C245.383 111.708 244.85 112.25 244.45 112.95C244.066 113.65 243.875 114.458 243.875 115.375C243.875 116.292 244.066 117.108 244.45 117.825C244.833 118.525 245.366 119.075 246.05 119.475C246.733 119.858 247.491 120.05 248.325 120.05ZM263.315 108.625C265.148 108.625 266.548 109.075 267.515 109.975C268.498 110.875 268.99 112.217 268.99 114V122H266.715V120.25C266.315 120.867 265.74 121.342 264.99 121.675C264.256 121.992 263.381 122.15 262.365 122.15C260.881 122.15 259.69 121.792 258.79 121.075C257.906 120.358 257.465 119.417 257.465 118.25C257.465 117.083 257.89 116.15 258.74 115.45C259.59 114.733 260.94 114.375 262.79 114.375H266.59V113.9C266.59 112.867 266.29 112.075 265.69 111.525C265.09 110.975 264.206 110.7 263.04 110.7C262.256 110.7 261.49 110.833 260.74 111.1C259.99 111.35 259.356 111.692 258.84 112.125L257.84 110.325C258.523 109.775 259.34 109.358 260.29 109.075C261.24 108.775 262.248 108.625 263.315 108.625ZM262.765 120.3C263.681 120.3 264.473 120.1 265.14 119.7C265.806 119.283 266.29 118.7 266.59 117.95V116.1H262.89C260.856 116.1 259.84 116.783 259.84 118.15C259.84 118.817 260.098 119.342 260.615 119.725C261.131 120.108 261.848 120.3 262.765 120.3ZM273.311 108.75H275.711V114.375H283.261V108.75H285.661V122H283.261V116.45H275.711V122H273.311V108.75ZM300.203 110.85H295.353V122H292.953V110.85H288.103V108.75H300.203V110.85ZM302.657 108.75H305.057V118.4L313.182 108.75H315.357V122H312.957V112.35L304.857 122H302.657V108.75ZM330.64 108.75V122H328.49V117.8H324.64H324.365L321.465 122H318.89L322.115 117.475C321.115 117.175 320.349 116.683 319.815 116C319.282 115.3 319.015 114.433 319.015 113.4C319.015 111.883 319.532 110.733 320.565 109.95C321.599 109.15 323.024 108.75 324.84 108.75H330.64ZM321.465 113.475C321.465 114.358 321.74 115.017 322.29 115.45C322.857 115.867 323.699 116.075 324.815 116.075H328.49V110.85H324.915C322.615 110.85 321.465 111.725 321.465 113.475Z" fill="#2D2D2D"/>
<path d="M1621.95 122L1621.93 109.25L1615.6 119.875H1614.45L1608.13 109.325V122H1605.73V104.5H1607.78L1615.08 116.8L1622.28 104.5H1624.33L1624.35 122H1621.95ZM1635.07 122.15C1633.76 122.15 1632.57 121.858 1631.52 121.275C1630.47 120.692 1629.65 119.892 1629.05 118.875C1628.46 117.842 1628.17 116.675 1628.17 115.375C1628.17 114.075 1628.46 112.917 1629.05 111.9C1629.65 110.867 1630.47 110.067 1631.52 109.5C1632.57 108.917 1633.76 108.625 1635.07 108.625C1636.39 108.625 1637.56 108.917 1638.6 109.5C1639.65 110.067 1640.46 110.867 1641.05 111.9C1641.65 112.917 1641.95 114.075 1641.95 115.375C1641.95 116.675 1641.65 117.842 1641.05 118.875C1640.46 119.892 1639.65 120.692 1638.6 121.275C1637.56 121.858 1636.39 122.15 1635.07 122.15ZM1635.07 120.05C1635.92 120.05 1636.68 119.858 1637.35 119.475C1638.03 119.075 1638.56 118.525 1638.95 117.825C1639.33 117.108 1639.52 116.292 1639.52 115.375C1639.52 114.458 1639.33 113.65 1638.95 112.95C1638.56 112.233 1638.03 111.683 1637.35 111.3C1636.68 110.917 1635.92 110.725 1635.07 110.725C1634.22 110.725 1633.46 110.917 1632.77 111.3C1632.11 111.683 1631.57 112.233 1631.17 112.95C1630.79 113.65 1630.6 114.458 1630.6 115.375C1630.6 116.292 1630.79 117.108 1631.17 117.825C1631.57 118.525 1632.11 119.075 1632.77 119.475C1633.46 119.858 1634.22 120.05 1635.07 120.05ZM1645.41 108.75H1647.81V114.375H1655.36V108.75H1657.76V122H1655.36V116.45H1647.81V122H1645.41V108.75ZM1672.3 110.85H1667.45V122H1665.05V110.85H1660.2V108.75H1672.3V110.85ZM1679.48 108.625C1681.32 108.625 1682.72 109.075 1683.68 109.975C1684.67 110.875 1685.16 112.217 1685.16 114V122H1682.88V120.25C1682.48 120.867 1681.91 121.342 1681.16 121.675C1680.43 121.992 1679.55 122.15 1678.53 122.15C1677.05 122.15 1675.86 121.792 1674.96 121.075C1674.08 120.358 1673.63 119.417 1673.63 118.25C1673.63 117.083 1674.06 116.15 1674.91 115.45C1675.76 114.733 1677.11 114.375 1678.96 114.375H1682.76V113.9C1682.76 112.867 1682.46 112.075 1681.86 111.525C1681.26 110.975 1680.38 110.7 1679.21 110.7C1678.43 110.7 1677.66 110.833 1676.91 111.1C1676.16 111.35 1675.53 111.692 1675.01 112.125L1674.01 110.325C1674.69 109.775 1675.51 109.358 1676.46 109.075C1677.41 108.775 1678.42 108.625 1679.48 108.625ZM1678.93 120.3C1679.85 120.3 1680.64 120.1 1681.31 119.7C1681.98 119.283 1682.46 118.7 1682.76 117.95V116.1H1679.06C1677.03 116.1 1676.01 116.783 1676.01 118.15C1676.01 118.817 1676.27 119.342 1676.78 119.725C1677.3 120.108 1678.02 120.3 1678.93 120.3ZM1701.53 116.4H1698.96V122H1696.56V116.4H1693.98L1690.33 122H1687.48L1692.03 115.15L1687.83 108.75H1690.38L1693.96 114.35H1696.56V108.75H1698.96V114.35H1701.56L1705.13 108.75H1707.71L1703.51 115.175L1708.06 122H1705.21L1701.53 116.4Z" fill="#2D2D2D"/>
<path d="M1307.4 119.825V125.825H1305.08V122H1290.68L1290.65 125.825H1288.33L1288.35 119.825H1289.2C1290.3 119.758 1291.08 118.892 1291.53 117.225C1291.98 115.542 1292.25 113.175 1292.35 110.125L1292.53 104.5H1304.83V119.825H1307.4ZM1294.55 110.35C1294.47 112.817 1294.27 114.858 1293.95 116.475C1293.65 118.092 1293.16 119.208 1292.48 119.825H1302.35V106.675H1294.68L1294.55 110.35ZM1315.8 122.15C1314.48 122.15 1313.3 121.858 1312.25 121.275C1311.2 120.692 1310.37 119.892 1309.77 118.875C1309.19 117.842 1308.9 116.675 1308.9 115.375C1308.9 114.075 1309.19 112.917 1309.77 111.9C1310.37 110.867 1311.2 110.067 1312.25 109.5C1313.3 108.917 1314.48 108.625 1315.8 108.625C1317.12 108.625 1318.29 108.917 1319.32 109.5C1320.37 110.067 1321.19 110.867 1321.77 111.9C1322.37 112.917 1322.67 114.075 1322.67 115.375C1322.67 116.675 1322.37 117.842 1321.77 118.875C1321.19 119.892 1320.37 120.692 1319.32 121.275C1318.29 121.858 1317.12 122.15 1315.8 122.15ZM1315.8 120.05C1316.65 120.05 1317.41 119.858 1318.07 119.475C1318.76 119.075 1319.29 118.525 1319.67 117.825C1320.06 117.108 1320.25 116.292 1320.25 115.375C1320.25 114.458 1320.06 113.65 1319.67 112.95C1319.29 112.233 1318.76 111.683 1318.07 111.3C1317.41 110.917 1316.65 110.725 1315.8 110.725C1314.95 110.725 1314.18 110.917 1313.5 111.3C1312.83 111.683 1312.3 112.233 1311.9 112.95C1311.52 113.65 1311.32 114.458 1311.32 115.375C1311.32 116.292 1311.52 117.108 1311.9 117.825C1312.3 118.525 1312.83 119.075 1313.5 119.475C1314.18 119.858 1314.95 120.05 1315.8 120.05ZM1331.92 122.15C1330.57 122.15 1329.36 121.858 1328.29 121.275C1327.24 120.692 1326.42 119.892 1325.82 118.875C1325.22 117.842 1324.92 116.675 1324.92 115.375C1324.92 114.075 1325.22 112.917 1325.82 111.9C1326.42 110.867 1327.24 110.067 1328.29 109.5C1329.36 108.917 1330.57 108.625 1331.92 108.625C1333.12 108.625 1334.18 108.867 1335.12 109.35C1336.07 109.833 1336.8 110.533 1337.32 111.45L1335.49 112.625C1335.07 111.992 1334.56 111.517 1333.94 111.2C1333.32 110.883 1332.64 110.725 1331.89 110.725C1331.02 110.725 1330.24 110.917 1329.54 111.3C1328.86 111.683 1328.32 112.233 1327.92 112.95C1327.53 113.65 1327.34 114.458 1327.34 115.375C1327.34 116.308 1327.53 117.133 1327.92 117.85C1328.32 118.55 1328.86 119.092 1329.54 119.475C1330.24 119.858 1331.02 120.05 1331.89 120.05C1332.64 120.05 1333.32 119.892 1333.94 119.575C1334.56 119.258 1335.07 118.783 1335.49 118.15L1337.32 119.3C1336.8 120.217 1336.07 120.925 1335.12 121.425C1334.18 121.908 1333.12 122.15 1331.92 122.15ZM1350.13 110.85H1345.28V122H1342.88V110.85H1338.03V108.75H1350.13V110.85ZM1357.31 108.625C1359.14 108.625 1360.54 109.075 1361.51 109.975C1362.49 110.875 1362.98 112.217 1362.98 114V122H1360.71V120.25C1360.31 120.867 1359.73 121.342 1358.98 121.675C1358.25 121.992 1357.37 122.15 1356.36 122.15C1354.87 122.15 1353.68 121.792 1352.78 121.075C1351.9 120.358 1351.46 119.417 1351.46 118.25C1351.46 117.083 1351.88 116.15 1352.73 115.45C1353.58 114.733 1354.93 114.375 1356.78 114.375H1360.58V113.9C1360.58 112.867 1360.28 112.075 1359.68 111.525C1359.08 110.975 1358.2 110.7 1357.03 110.7C1356.25 110.7 1355.48 110.833 1354.73 111.1C1353.98 111.35 1353.35 111.692 1352.83 112.125L1351.83 110.325C1352.51 109.775 1353.33 109.358 1354.28 109.075C1355.23 108.775 1356.24 108.625 1357.31 108.625ZM1356.76 120.3C1357.67 120.3 1358.46 120.1 1359.13 119.7C1359.8 119.283 1360.28 118.7 1360.58 117.95V116.1H1356.88C1354.85 116.1 1353.83 116.783 1353.83 118.15C1353.83 118.817 1354.09 119.342 1354.61 119.725C1355.12 120.108 1355.84 120.3 1356.76 120.3ZM1376.33 115.125C1378.04 115.558 1378.9 116.633 1378.9 118.35C1378.9 119.517 1378.46 120.417 1377.58 121.05C1376.71 121.683 1375.41 122 1373.68 122H1367.3V108.75H1373.45C1375.02 108.75 1376.24 109.05 1377.13 109.65C1378.01 110.233 1378.45 111.067 1378.45 112.15C1378.45 112.85 1378.26 113.458 1377.88 113.975C1377.51 114.475 1376.99 114.858 1376.33 115.125ZM1369.65 114.45H1373.25C1374.17 114.45 1374.86 114.283 1375.33 113.95C1375.81 113.617 1376.05 113.133 1376.05 112.5C1376.05 111.233 1375.12 110.6 1373.25 110.6H1369.65V114.45ZM1373.5 120.15C1374.5 120.15 1375.25 119.992 1375.75 119.675C1376.25 119.358 1376.5 118.867 1376.5 118.2C1376.5 117.517 1376.27 117.008 1375.8 116.675C1375.35 116.342 1374.64 116.175 1373.65 116.175H1369.65V120.15H1373.5ZM1387.81 116.4H1385.06V122H1382.66V108.75H1385.06V114.35H1387.86L1392.16 108.75H1394.73L1389.71 115.125L1395.08 122H1392.26L1387.81 116.4ZM1402.08 108.625C1403.91 108.625 1405.31 109.075 1406.28 109.975C1407.26 110.875 1407.76 112.217 1407.76 114V122H1405.48V120.25C1405.08 120.867 1404.51 121.342 1403.76 121.675C1403.02 121.992 1402.15 122.15 1401.13 122.15C1399.65 122.15 1398.46 121.792 1397.56 121.075C1396.67 120.358 1396.23 119.417 1396.23 118.25C1396.23 117.083 1396.66 116.15 1397.51 115.45C1398.36 114.733 1399.71 114.375 1401.56 114.375H1405.36V113.9C1405.36 112.867 1405.06 112.075 1404.46 111.525C1403.86 110.975 1402.97 110.7 1401.81 110.7C1401.02 110.7 1400.26 110.833 1399.51 111.1C1398.76 111.35 1398.12 111.692 1397.61 112.125L1396.61 110.325C1397.29 109.775 1398.11 109.358 1399.06 109.075C1400.01 108.775 1401.01 108.625 1402.08 108.625ZM1401.53 120.3C1402.45 120.3 1403.24 120.1 1403.91 119.7C1404.57 119.283 1405.06 118.7 1405.36 117.95V116.1H1401.66C1399.62 116.1 1398.61 116.783 1398.61 118.15C1398.61 118.817 1398.86 119.342 1399.38 119.725C1399.9 120.108 1400.61 120.3 1401.53 120.3Z" fill="#2D2D2D"/>
<path d="M895.1 112.875C896.2 113.175 897.058 113.7 897.675 114.45C898.292 115.183 898.6 116.067 898.6 117.1C898.6 118.133 898.267 119.042 897.6 119.825C896.95 120.592 896.075 121.183 894.975 121.6C893.892 122 892.708 122.2 891.425 122.2C890.258 122.2 889.1 122.025 887.95 121.675C886.8 121.325 885.75 120.8 884.8 120.1L885.675 118.25C886.442 118.85 887.3 119.3 888.25 119.6C889.2 119.9 890.158 120.05 891.125 120.05C892.525 120.05 893.7 119.758 894.65 119.175C895.6 118.575 896.075 117.758 896.075 116.725C896.075 115.842 895.717 115.167 895 114.7C894.283 114.217 893.275 113.975 891.975 113.975H888.075V111.95H891.8C892.917 111.95 893.783 111.725 894.4 111.275C895.033 110.808 895.35 110.167 895.35 109.35C895.35 108.433 894.942 107.708 894.125 107.175C893.308 106.642 892.275 106.375 891.025 106.375C890.208 106.375 889.375 106.492 888.525 106.725C887.692 106.958 886.9 107.308 886.15 107.775L885.35 105.725C886.233 105.225 887.167 104.85 888.15 104.6C889.133 104.35 890.117 104.225 891.1 104.225C892.333 104.225 893.467 104.417 894.5 104.8C895.533 105.183 896.35 105.742 896.95 106.475C897.567 107.208 897.875 108.067 897.875 109.05C897.875 109.933 897.625 110.708 897.125 111.375C896.642 112.042 895.967 112.542 895.1 112.875ZM907.09 108.625C908.923 108.625 910.323 109.075 911.29 109.975C912.273 110.875 912.765 112.217 912.765 114V122H910.49V120.25C910.09 120.867 909.515 121.342 908.765 121.675C908.032 121.992 907.157 122.15 906.14 122.15C904.657 122.15 903.465 121.792 902.565 121.075C901.682 120.358 901.24 119.417 901.24 118.25C901.24 117.083 901.665 116.15 902.515 115.45C903.365 114.733 904.715 114.375 906.565 114.375H910.365V113.9C910.365 112.867 910.065 112.075 909.465 111.525C908.865 110.975 907.982 110.7 906.815 110.7C906.032 110.7 905.265 110.833 904.515 111.1C903.765 111.35 903.132 111.692 902.615 112.125L901.615 110.325C902.298 109.775 903.115 109.358 904.065 109.075C905.015 108.775 906.023 108.625 907.09 108.625ZM906.54 120.3C907.457 120.3 908.248 120.1 908.915 119.7C909.582 119.283 910.065 118.7 910.365 117.95V116.1H906.665C904.632 116.1 903.615 116.783 903.615 118.15C903.615 118.817 903.873 119.342 904.39 119.725C904.907 120.108 905.623 120.3 906.54 120.3ZM932.362 108.75V122H930.187V112.325L925.237 120.5H924.187L919.287 112.3V122H917.087V108.75H919.562L924.762 117.7L930.112 108.75H932.362ZM949.008 115.45C949.008 115.633 948.991 115.875 948.958 116.175H938.208C938.358 117.342 938.866 118.283 939.733 119C940.616 119.7 941.708 120.05 943.008 120.05C944.591 120.05 945.866 119.517 946.833 118.45L948.158 120C947.558 120.7 946.808 121.233 945.908 121.6C945.025 121.967 944.033 122.15 942.933 122.15C941.533 122.15 940.291 121.867 939.208 121.3C938.125 120.717 937.283 119.908 936.683 118.875C936.1 117.842 935.808 116.675 935.808 115.375C935.808 114.092 936.091 112.933 936.658 111.9C937.241 110.867 938.033 110.067 939.033 109.5C940.05 108.917 941.191 108.625 942.458 108.625C943.725 108.625 944.85 108.917 945.833 109.5C946.833 110.067 947.608 110.867 948.158 111.9C948.725 112.933 949.008 114.117 949.008 115.45ZM942.458 110.65C941.308 110.65 940.341 111 939.558 111.7C938.791 112.4 938.341 113.317 938.208 114.45H946.708C946.575 113.333 946.116 112.425 945.333 111.725C944.566 111.008 943.608 110.65 942.458 110.65ZM959.756 108.625C961.04 108.625 962.19 108.908 963.206 109.475C964.223 110.042 965.015 110.833 965.581 111.85C966.165 112.867 966.456 114.042 966.456 115.375C966.456 116.708 966.165 117.892 965.581 118.925C965.015 119.942 964.223 120.733 963.206 121.3C962.19 121.867 961.04 122.15 959.756 122.15C958.806 122.15 957.931 121.967 957.131 121.6C956.348 121.233 955.681 120.7 955.131 120V126.85H952.731V108.75H955.031V110.85C955.565 110.117 956.24 109.567 957.056 109.2C957.873 108.817 958.773 108.625 959.756 108.625ZM959.556 120.05C960.406 120.05 961.165 119.858 961.831 119.475C962.515 119.075 963.048 118.525 963.431 117.825C963.831 117.108 964.031 116.292 964.031 115.375C964.031 114.458 963.831 113.65 963.431 112.95C963.048 112.233 962.515 111.683 961.831 111.3C961.165 110.917 960.406 110.725 959.556 110.725C958.723 110.725 957.965 110.925 957.281 111.325C956.615 111.708 956.081 112.25 955.681 112.95C955.298 113.65 955.106 114.458 955.106 115.375C955.106 116.292 955.298 117.108 955.681 117.825C956.065 118.525 956.598 119.075 957.281 119.475C957.965 119.858 958.723 120.05 959.556 120.05ZM976.657 108.75H979.057V118.4L987.182 108.75H989.357V122H986.957V112.35L978.857 122H976.657V108.75ZM1014.2 119.9V125.075H1011.95V122H1000.88V125.075H998.604V119.9H999.304C1000.15 119.85 1000.74 119.25 1001.05 118.1C1001.37 116.95 1001.59 115.325 1001.7 113.225L1001.9 108.75H1012.18V119.9H1014.2ZM1003.9 113.4C1003.84 115.067 1003.7 116.45 1003.48 117.55C1003.28 118.633 1002.9 119.417 1002.35 119.9H1009.78V110.85H1004.03L1003.9 113.4ZM1017.33 108.75H1019.73V118.4L1027.86 108.75H1030.03V122H1027.63V112.35L1019.53 122H1017.33V108.75ZM1041.64 115.1C1042.53 115.333 1043.21 115.708 1043.69 116.225C1044.18 116.742 1044.42 117.383 1044.42 118.15C1044.42 118.933 1044.15 119.633 1043.62 120.25C1043.09 120.85 1042.34 121.325 1041.39 121.675C1040.46 122.008 1039.41 122.175 1038.24 122.175C1037.26 122.175 1036.29 122.05 1035.34 121.8C1034.41 121.533 1033.58 121.158 1032.84 120.675L1033.57 118.85C1034.2 119.25 1034.93 119.567 1035.74 119.8C1036.56 120.017 1037.39 120.125 1038.22 120.125C1039.35 120.125 1040.25 119.933 1040.92 119.55C1041.6 119.15 1041.94 118.617 1041.94 117.95C1041.94 117.333 1041.67 116.858 1041.12 116.525C1040.59 116.192 1039.83 116.025 1038.84 116.025H1036.42V114.3H1038.67C1039.57 114.3 1040.28 114.142 1040.79 113.825C1041.31 113.508 1041.57 113.075 1041.57 112.525C1041.57 111.925 1041.26 111.458 1040.64 111.125C1040.04 110.792 1039.23 110.625 1038.19 110.625C1036.88 110.625 1035.49 110.967 1034.02 111.65L1033.37 109.8C1034.99 108.983 1036.68 108.575 1038.44 108.575C1039.51 108.575 1040.47 108.725 1041.32 109.025C1042.17 109.325 1042.84 109.75 1043.32 110.3C1043.8 110.85 1044.04 111.475 1044.04 112.175C1044.04 112.825 1043.83 113.408 1043.39 113.925C1042.96 114.442 1042.38 114.833 1041.64 115.1ZM1052.79 108.625C1054.63 108.625 1056.03 109.075 1056.99 109.975C1057.98 110.875 1058.47 112.217 1058.47 114V122H1056.19V120.25C1055.79 120.867 1055.22 121.342 1054.47 121.675C1053.73 121.992 1052.86 122.15 1051.84 122.15C1050.36 122.15 1049.17 121.792 1048.27 121.075C1047.38 120.358 1046.94 119.417 1046.94 118.25C1046.94 117.083 1047.37 116.15 1048.22 115.45C1049.07 114.733 1050.42 114.375 1052.27 114.375H1056.07V113.9C1056.07 112.867 1055.77 112.075 1055.17 111.525C1054.57 110.975 1053.68 110.7 1052.52 110.7C1051.73 110.7 1050.97 110.833 1050.22 111.1C1049.47 111.35 1048.83 111.692 1048.32 112.125L1047.32 110.325C1048 109.775 1048.82 109.358 1049.77 109.075C1050.72 108.775 1051.73 108.625 1052.79 108.625ZM1052.24 120.3C1053.16 120.3 1053.95 120.1 1054.62 119.7C1055.28 119.283 1055.77 118.7 1056.07 117.95V116.1H1052.37C1050.33 116.1 1049.32 116.783 1049.32 118.15C1049.32 118.817 1049.58 119.342 1050.09 119.725C1050.61 120.108 1051.33 120.3 1052.24 120.3ZM1062.79 108.75H1065.19V118.4L1073.31 108.75H1075.49V122H1073.09V112.35L1064.99 122H1062.79V108.75ZM1068.99 107.025C1067.76 107.025 1066.8 106.733 1066.11 106.15C1065.43 105.55 1065.08 104.692 1065.06 103.575H1066.69C1066.71 104.192 1066.91 104.692 1067.31 105.075C1067.73 105.442 1068.28 105.625 1068.96 105.625C1069.65 105.625 1070.2 105.442 1070.61 105.075C1071.03 104.692 1071.25 104.192 1071.26 103.575H1072.94C1072.92 104.692 1072.56 105.55 1071.86 106.15C1071.16 106.733 1070.21 107.025 1068.99 107.025ZM1080.15 108.75H1082.55V114.375H1090.1V108.75H1092.5V122H1090.1V116.45H1082.55V122H1080.15V108.75Z" fill="#2D2D2D"/>
<path d="M535.55 122.2C533.8 122.2 532.217 121.817 530.8 121.05C529.4 120.267 528.3 119.2 527.5 117.85C526.7 116.483 526.3 114.95 526.3 113.25C526.3 111.55 526.7 110.025 527.5 108.675C528.3 107.308 529.408 106.242 530.825 105.475C532.242 104.692 533.825 104.3 535.575 104.3C536.942 104.3 538.192 104.533 539.325 105C540.458 105.45 541.425 106.125 542.225 107.025L540.6 108.6C539.283 107.217 537.642 106.525 535.675 106.525C534.375 106.525 533.2 106.817 532.15 107.4C531.1 107.983 530.275 108.792 529.675 109.825C529.092 110.842 528.8 111.983 528.8 113.25C528.8 114.517 529.092 115.667 529.675 116.7C530.275 117.717 531.1 118.517 532.15 119.1C533.2 119.683 534.375 119.975 535.675 119.975C537.625 119.975 539.267 119.275 540.6 117.875L542.225 119.45C541.425 120.35 540.45 121.033 539.3 121.5C538.167 121.967 536.917 122.2 535.55 122.2ZM552.294 108.625C553.578 108.625 554.728 108.908 555.744 109.475C556.761 110.042 557.553 110.833 558.119 111.85C558.703 112.867 558.994 114.042 558.994 115.375C558.994 116.708 558.703 117.892 558.119 118.925C557.553 119.942 556.761 120.733 555.744 121.3C554.728 121.867 553.578 122.15 552.294 122.15C551.344 122.15 550.469 121.967 549.669 121.6C548.886 121.233 548.219 120.7 547.669 120V126.85H545.269V108.75H547.569V110.85C548.103 110.117 548.778 109.567 549.594 109.2C550.411 108.817 551.311 108.625 552.294 108.625ZM552.094 120.05C552.944 120.05 553.703 119.858 554.369 119.475C555.053 119.075 555.586 118.525 555.969 117.825C556.369 117.108 556.569 116.292 556.569 115.375C556.569 114.458 556.369 113.65 555.969 112.95C555.586 112.233 555.053 111.683 554.369 111.3C553.703 110.917 552.944 110.725 552.094 110.725C551.261 110.725 550.503 110.925 549.819 111.325C549.153 111.708 548.619 112.25 548.219 112.95C547.836 113.65 547.644 114.458 547.644 115.375C547.644 116.292 547.836 117.108 548.219 117.825C548.603 118.525 549.136 119.075 549.819 119.475C550.503 119.858 551.261 120.05 552.094 120.05ZM568.156 122.15C566.84 122.15 565.656 121.858 564.606 121.275C563.556 120.692 562.731 119.892 562.131 118.875C561.548 117.842 561.256 116.675 561.256 115.375C561.256 114.075 561.548 112.917 562.131 111.9C562.731 110.867 563.556 110.067 564.606 109.5C565.656 108.917 566.84 108.625 568.156 108.625C569.473 108.625 570.648 108.917 571.681 109.5C572.731 110.067 573.548 110.867 574.131 111.9C574.731 112.917 575.031 114.075 575.031 115.375C575.031 116.675 574.731 117.842 574.131 118.875C573.548 119.892 572.731 120.692 571.681 121.275C570.648 121.858 569.473 122.15 568.156 122.15ZM568.156 120.05C569.006 120.05 569.765 119.858 570.431 119.475C571.115 119.075 571.648 118.525 572.031 117.825C572.415 117.108 572.606 116.292 572.606 115.375C572.606 114.458 572.415 113.65 572.031 112.95C571.648 112.233 571.115 111.683 570.431 111.3C569.765 110.917 569.006 110.725 568.156 110.725C567.306 110.725 566.54 110.917 565.856 111.3C565.19 111.683 564.656 112.233 564.256 112.95C563.873 113.65 563.681 114.458 563.681 115.375C563.681 116.292 563.873 117.108 564.256 117.825C564.656 118.525 565.19 119.075 565.856 119.475C566.54 119.858 567.306 120.05 568.156 120.05ZM583.647 116.4H580.897V122H578.497V108.75H580.897V114.35H583.697L587.997 108.75H590.572L585.547 115.125L590.922 122H588.097L583.647 116.4ZM593.438 108.75H595.838V118.4L603.963 108.75H606.138V122H603.738V112.35L595.638 122H593.438V108.75ZM624.536 108.625C625.819 108.625 626.969 108.908 627.986 109.475C629.002 110.042 629.794 110.833 630.361 111.85C630.944 112.867 631.236 114.042 631.236 115.375C631.236 116.708 630.944 117.892 630.361 118.925C629.794 119.942 629.002 120.733 627.986 121.3C626.969 121.867 625.819 122.15 624.536 122.15C623.586 122.15 622.711 121.967 621.911 121.6C621.127 121.233 620.461 120.7 619.911 120V126.85H617.511V108.75H619.811V110.85C620.344 110.117 621.019 109.567 621.836 109.2C622.652 108.817 623.552 108.625 624.536 108.625ZM624.336 120.05C625.186 120.05 625.944 119.858 626.611 119.475C627.294 119.075 627.827 118.525 628.211 117.825C628.611 117.108 628.811 116.292 628.811 115.375C628.811 114.458 628.611 113.65 628.211 112.95C627.827 112.233 627.294 111.683 626.611 111.3C625.944 110.917 625.186 110.725 624.336 110.725C623.502 110.725 622.744 110.925 622.061 111.325C621.394 111.708 620.861 112.25 620.461 112.95C620.077 113.65 619.886 114.458 619.886 115.375C619.886 116.292 620.077 117.108 620.461 117.825C620.844 118.525 621.377 119.075 622.061 119.475C622.744 119.858 623.502 120.05 624.336 120.05ZM639.325 108.625C641.159 108.625 642.559 109.075 643.525 109.975C644.509 110.875 645 112.217 645 114V122H642.725V120.25C642.325 120.867 641.75 121.342 641 121.675C640.267 121.992 639.392 122.15 638.375 122.15C636.892 122.15 635.7 121.792 634.8 121.075C633.917 120.358 633.475 119.417 633.475 118.25C633.475 117.083 633.9 116.15 634.75 115.45C635.6 114.733 636.95 114.375 638.8 114.375H642.6V113.9C642.6 112.867 642.3 112.075 641.7 111.525C641.1 110.975 640.217 110.7 639.05 110.7C638.267 110.7 637.5 110.833 636.75 111.1C636 111.35 635.367 111.692 634.85 112.125L633.85 110.325C634.534 109.775 635.35 109.358 636.3 109.075C637.25 108.775 638.259 108.625 639.325 108.625ZM638.775 120.3C639.692 120.3 640.484 120.1 641.15 119.7C641.817 119.283 642.3 118.7 642.6 117.95V116.1H638.9C636.867 116.1 635.85 116.783 635.85 118.15C635.85 118.817 636.109 119.342 636.625 119.725C637.142 120.108 637.859 120.3 638.775 120.3ZM656.072 109.2C657.305 109.2 658.405 109.475 659.372 110.025C660.339 110.575 661.089 111.342 661.622 112.325C662.172 113.292 662.447 114.4 662.447 115.65C662.447 116.933 662.155 118.075 661.572 119.075C661.005 120.058 660.197 120.825 659.147 121.375C658.114 121.925 656.93 122.2 655.597 122.2C653.347 122.2 651.605 121.433 650.372 119.9C649.155 118.35 648.547 116.175 648.547 113.375C648.547 110.658 649.105 108.533 650.222 107C651.339 105.45 653.047 104.425 655.347 103.925L661.397 102.575L661.747 104.775L656.172 105.975C654.439 106.358 653.147 107.008 652.297 107.925C651.447 108.842 650.964 110.158 650.847 111.875C651.414 111.025 652.147 110.367 653.047 109.9C653.947 109.433 654.955 109.2 656.072 109.2ZM655.647 120.2C656.497 120.2 657.247 120.008 657.897 119.625C658.564 119.242 659.08 118.717 659.447 118.05C659.814 117.367 659.997 116.592 659.997 115.725C659.997 114.408 659.597 113.35 658.797 112.55C657.997 111.75 656.947 111.35 655.647 111.35C654.347 111.35 653.289 111.75 652.472 112.55C651.672 113.35 651.272 114.408 651.272 115.725C651.272 116.592 651.455 117.367 651.822 118.05C652.205 118.717 652.73 119.242 653.397 119.625C654.064 120.008 654.814 120.2 655.647 120.2ZM671.55 122.15C670.233 122.15 669.05 121.858 668 121.275C666.95 120.692 666.125 119.892 665.525 118.875C664.941 117.842 664.65 116.675 664.65 115.375C664.65 114.075 664.941 112.917 665.525 111.9C666.125 110.867 666.95 110.067 668 109.5C669.05 108.917 670.233 108.625 671.55 108.625C672.866 108.625 674.041 108.917 675.075 109.5C676.125 110.067 676.941 110.867 677.525 111.9C678.125 112.917 678.425 114.075 678.425 115.375C678.425 116.675 678.125 117.842 677.525 118.875C676.941 119.892 676.125 120.692 675.075 121.275C674.041 121.858 672.866 122.15 671.55 122.15ZM671.55 120.05C672.4 120.05 673.158 119.858 673.825 119.475C674.508 119.075 675.041 118.525 675.425 117.825C675.808 117.108 676 116.292 676 115.375C676 114.458 675.808 113.65 675.425 112.95C675.041 112.233 674.508 111.683 673.825 111.3C673.158 110.917 672.4 110.725 671.55 110.725C670.7 110.725 669.933 110.917 669.25 111.3C668.583 111.683 668.05 112.233 667.65 112.95C667.266 113.65 667.075 114.458 667.075 115.375C667.075 116.292 667.266 117.108 667.65 117.825C668.05 118.525 668.583 119.075 669.25 119.475C669.933 119.858 670.7 120.05 671.55 120.05ZM691.277 110.85H686.427V122H684.027V110.85H679.177V108.75H691.277V110.85Z" fill="#2D2D2D"/>
<rect opacity="0.5" x="210" y="141" width="1500" height="1" fill="#2D2D2D"/>
<path d="M213.776 165.392C215.397 165.392 216.576 165.685 217.312 166.272C218.059 166.848 218.432 167.659 218.432 168.704C218.432 169.355 218.277 169.936 217.968 170.448C217.669 170.96 217.216 171.365 216.608 171.664C216 171.952 215.253 172.096 214.368 172.096C213.568 172.096 212.805 171.968 212.08 171.712C211.365 171.445 210.789 171.093 210.352 170.656L210.912 169.744C211.285 170.128 211.776 170.443 212.384 170.688C212.992 170.923 213.648 171.04 214.352 171.04C215.28 171.04 215.995 170.832 216.496 170.416C217.008 170 217.264 169.445 217.264 168.752C217.264 167.984 216.976 167.403 216.4 167.008C215.835 166.613 214.875 166.416 213.52 166.416H211.136L211.712 160.8H217.84V161.824H212.72L212.336 165.392H213.776ZM231.746 163.584V172H230.61V164.592H226.578L226.466 166.672C226.381 168.421 226.178 169.765 225.858 170.704C225.538 171.643 224.967 172.112 224.146 172.112C223.922 172.112 223.65 172.069 223.33 171.984L223.41 171.008C223.602 171.051 223.735 171.072 223.81 171.072C224.247 171.072 224.578 170.869 224.802 170.464C225.026 170.059 225.175 169.557 225.25 168.96C225.325 168.363 225.389 167.573 225.442 166.592L225.586 163.584H231.746ZM242.335 168.144H235.295C235.359 169.019 235.695 169.728 236.303 170.272C236.911 170.805 237.679 171.072 238.607 171.072C239.13 171.072 239.61 170.981 240.047 170.8C240.485 170.608 240.863 170.331 241.183 169.968L241.823 170.704C241.45 171.152 240.981 171.493 240.415 171.728C239.861 171.963 239.247 172.08 238.575 172.08C237.711 172.08 236.943 171.899 236.271 171.536C235.61 171.163 235.093 170.651 234.719 170C234.346 169.349 234.159 168.613 234.159 167.792C234.159 166.971 234.335 166.235 234.687 165.584C235.05 164.933 235.541 164.427 236.159 164.064C236.789 163.701 237.493 163.52 238.271 163.52C239.05 163.52 239.749 163.701 240.367 164.064C240.986 164.427 241.471 164.933 241.823 165.584C242.175 166.224 242.351 166.96 242.351 167.792L242.335 168.144ZM238.271 164.496C237.461 164.496 236.778 164.757 236.223 165.28C235.679 165.792 235.37 166.464 235.295 167.296H241.263C241.189 166.464 240.874 165.792 240.319 165.28C239.775 164.757 239.093 164.496 238.271 164.496ZM250.411 164.592H247.227V172H246.091V164.592H242.907V163.584H250.411V164.592Z" fill="#2D2D2D"/>
<path d="M528.776 165.392C530.397 165.392 531.576 165.685 532.312 166.272C533.059 166.848 533.432 167.659 533.432 168.704C533.432 169.355 533.277 169.936 532.968 170.448C532.669 170.96 532.216 171.365 531.608 171.664C531 171.952 530.253 172.096 529.368 172.096C528.568 172.096 527.805 171.968 527.08 171.712C526.365 171.445 525.789 171.093 525.352 170.656L525.912 169.744C526.285 170.128 526.776 170.443 527.384 170.688C527.992 170.923 528.648 171.04 529.352 171.04C530.28 171.04 530.995 170.832 531.496 170.416C532.008 170 532.264 169.445 532.264 168.752C532.264 167.984 531.976 167.403 531.4 167.008C530.835 166.613 529.875 166.416 528.52 166.416H526.136L526.712 160.8H532.84V161.824H527.72L527.336 165.392H528.776ZM548.074 171.008V174.032H547.002V172H539.466V174.032H538.394V171.008H538.874C539.439 170.976 539.823 170.56 540.026 169.76C540.229 168.96 540.367 167.84 540.442 166.4L540.554 163.584H546.762V171.008H548.074ZM541.482 166.464C541.429 167.659 541.327 168.645 541.178 169.424C541.029 170.192 540.762 170.72 540.378 171.008H545.626V164.592H541.578L541.482 166.464ZM550.288 163.584H551.424V167.312H556.72V163.584H557.856V172H556.72V168.288H551.424V172H550.288V163.584ZM568.445 168.144H561.405C561.469 169.019 561.805 169.728 562.413 170.272C563.021 170.805 563.789 171.072 564.717 171.072C565.239 171.072 565.719 170.981 566.157 170.8C566.594 170.608 566.973 170.331 567.293 169.968L567.933 170.704C567.559 171.152 567.09 171.493 566.525 171.728C565.97 171.963 565.357 172.08 564.685 172.08C563.821 172.08 563.053 171.899 562.381 171.536C561.719 171.163 561.202 170.651 560.829 170C560.455 169.349 560.269 168.613 560.269 167.792C560.269 166.971 560.445 166.235 560.797 165.584C561.159 164.933 561.65 164.427 562.269 164.064C562.898 163.701 563.602 163.52 564.381 163.52C565.159 163.52 565.858 163.701 566.477 164.064C567.095 164.427 567.581 164.933 567.933 165.584C568.285 166.224 568.461 166.96 568.461 167.792L568.445 168.144ZM564.381 164.496C563.57 164.496 562.887 164.757 562.333 165.28C561.789 165.792 561.479 166.464 561.405 167.296H567.373C567.298 166.464 566.983 165.792 566.429 165.28C565.885 164.757 565.202 164.496 564.381 164.496ZM570.975 163.584H572.111V170.272L577.727 163.584H578.735V172H577.599V165.312L571.999 172H570.975V163.584ZM574.799 162.368C574.074 162.368 573.498 162.187 573.071 161.824C572.645 161.461 572.426 160.949 572.415 160.288H573.231C573.242 160.704 573.391 161.04 573.679 161.296C573.967 161.541 574.341 161.664 574.799 161.664C575.258 161.664 575.631 161.541 575.919 161.296C576.218 161.04 576.373 160.704 576.383 160.288H577.199C577.189 160.949 576.965 161.461 576.527 161.824C576.101 162.187 575.525 162.368 574.799 162.368Z" fill="#2D2D2D"/>
<path d="M889.696 163.792C890.475 163.792 891.168 163.968 891.776 164.32C892.395 164.661 892.875 165.147 893.216 165.776C893.557 166.395 893.728 167.104 893.728 167.904C893.728 168.725 893.547 169.456 893.184 170.096C892.832 170.725 892.336 171.216 891.696 171.568C891.056 171.92 890.32 172.096 889.488 172.096C888.091 172.096 887.008 171.605 886.24 170.624C885.472 169.643 885.088 168.288 885.088 166.56C885.088 164.757 885.429 163.376 886.112 162.416C886.805 161.456 887.883 160.805 889.344 160.464L893.12 159.6L893.312 160.64L889.76 161.456C888.555 161.723 887.669 162.197 887.104 162.88C886.539 163.552 886.229 164.549 886.176 165.872C886.517 165.221 886.992 164.715 887.6 164.352C888.208 163.979 888.907 163.792 889.696 163.792ZM889.52 171.152C890.107 171.152 890.629 171.019 891.088 170.752C891.557 170.475 891.92 170.091 892.176 169.6C892.443 169.109 892.576 168.555 892.576 167.936C892.576 167.317 892.448 166.773 892.192 166.304C891.936 165.835 891.573 165.472 891.104 165.216C890.645 164.949 890.117 164.816 889.52 164.816C888.923 164.816 888.389 164.949 887.92 165.216C887.461 165.472 887.099 165.835 886.832 166.304C886.576 166.773 886.448 167.317 886.448 167.936C886.448 168.555 886.576 169.109 886.832 169.6C887.099 170.091 887.467 170.475 887.936 170.752C888.405 171.019 888.933 171.152 889.52 171.152ZM903.523 168.144H896.483C896.547 169.019 896.883 169.728 897.491 170.272C898.099 170.805 898.867 171.072 899.795 171.072C900.318 171.072 900.798 170.981 901.235 170.8C901.672 170.608 902.051 170.331 902.371 169.968L903.011 170.704C902.638 171.152 902.168 171.493 901.603 171.728C901.048 171.963 900.435 172.08 899.763 172.08C898.899 172.08 898.131 171.899 897.459 171.536C896.798 171.163 896.28 170.651 895.907 170C895.534 169.349 895.347 168.613 895.347 167.792C895.347 166.971 895.523 166.235 895.875 165.584C896.238 164.933 896.728 164.427 897.347 164.064C897.976 163.701 898.68 163.52 899.459 163.52C900.238 163.52 900.936 163.701 901.555 164.064C902.174 164.427 902.659 164.933 903.011 165.584C903.363 166.224 903.539 166.96 903.539 167.792L903.523 168.144ZM899.459 164.496C898.648 164.496 897.966 164.757 897.411 165.28C896.867 165.792 896.558 166.464 896.483 167.296H902.451C902.376 166.464 902.062 165.792 901.507 165.28C900.963 164.757 900.28 164.496 899.459 164.496ZM909.574 172.08C908.742 172.08 907.995 171.899 907.334 171.536C906.683 171.173 906.171 170.667 905.798 170.016C905.424 169.355 905.238 168.613 905.238 167.792C905.238 166.971 905.424 166.235 905.798 165.584C906.171 164.933 906.683 164.427 907.334 164.064C907.995 163.701 908.742 163.52 909.574 163.52C910.299 163.52 910.944 163.664 911.51 163.952C912.086 164.229 912.539 164.64 912.87 165.184L912.022 165.76C911.744 165.344 911.392 165.035 910.966 164.832C910.539 164.619 910.075 164.512 909.574 164.512C908.966 164.512 908.416 164.651 907.926 164.928C907.446 165.195 907.067 165.579 906.789 166.08C906.523 166.581 906.39 167.152 906.39 167.792C906.39 168.443 906.523 169.019 906.789 169.52C907.067 170.011 907.446 170.395 907.926 170.672C908.416 170.939 908.966 171.072 909.574 171.072C910.075 171.072 910.539 170.971 910.966 170.768C911.392 170.565 911.744 170.256 912.022 169.84L912.87 170.416C912.539 170.96 912.086 171.376 911.51 171.664C910.934 171.941 910.288 172.08 909.574 172.08ZM922.621 163.584V172H921.485V164.592H916.205V172H915.069V163.584H922.621ZM932.73 163.584V172H931.594V164.592H927.562L927.45 166.672C927.365 168.421 927.162 169.765 926.842 170.704C926.522 171.643 925.952 172.112 925.13 172.112C924.906 172.112 924.634 172.069 924.314 171.984L924.394 171.008C924.586 171.051 924.72 171.072 924.794 171.072C925.232 171.072 925.562 170.869 925.786 170.464C926.01 170.059 926.16 169.557 926.234 168.96C926.309 168.363 926.373 167.573 926.426 166.592L926.57 163.584H932.73ZM938.856 163.52C939.954 163.52 940.797 163.797 941.384 164.352C941.97 164.896 942.264 165.707 942.264 166.784V172H941.176V170.688C940.92 171.125 940.541 171.467 940.04 171.712C939.549 171.957 938.962 172.08 938.28 172.08C937.341 172.08 936.594 171.856 936.04 171.408C935.485 170.96 935.208 170.368 935.208 169.632C935.208 168.917 935.464 168.341 935.976 167.904C936.498 167.467 937.325 167.248 938.456 167.248H941.128V166.736C941.128 166.011 940.925 165.461 940.52 165.088C940.114 164.704 939.522 164.512 938.744 164.512C938.21 164.512 937.698 164.603 937.208 164.784C936.717 164.955 936.296 165.195 935.944 165.504L935.432 164.656C935.858 164.293 936.37 164.016 936.968 163.824C937.565 163.621 938.194 163.52 938.856 163.52ZM938.456 171.184C939.096 171.184 939.645 171.04 940.104 170.752C940.562 170.453 940.904 170.027 941.128 169.472V168.096H938.488C937.048 168.096 936.328 168.597 936.328 169.6C936.328 170.091 936.514 170.48 936.888 170.768C937.261 171.045 937.784 171.184 938.456 171.184ZM951.208 164.592H948.024V172H946.888V164.592H943.704V163.584H951.208V164.592ZM952.85 163.584H953.986V167.312H959.282V163.584H960.418V172H959.282V168.288H953.986V172H952.85V163.584ZM967.119 172.08C966.309 172.08 965.578 171.899 964.927 171.536C964.277 171.163 963.765 170.651 963.391 170C963.018 169.349 962.831 168.613 962.831 167.792C962.831 166.971 963.018 166.235 963.391 165.584C963.765 164.933 964.277 164.427 964.927 164.064C965.578 163.701 966.309 163.52 967.119 163.52C967.93 163.52 968.661 163.701 969.311 164.064C969.962 164.427 970.469 164.933 970.831 165.584C971.205 166.235 971.391 166.971 971.391 167.792C971.391 168.613 971.205 169.349 970.831 170C970.469 170.651 969.962 171.163 969.311 171.536C968.661 171.899 967.93 172.08 967.119 172.08ZM967.119 171.072C967.717 171.072 968.25 170.939 968.719 170.672C969.199 170.395 969.573 170.005 969.839 169.504C970.106 169.003 970.239 168.432 970.239 167.792C970.239 167.152 970.106 166.581 969.839 166.08C969.573 165.579 969.199 165.195 968.719 164.928C968.25 164.651 967.717 164.512 967.119 164.512C966.522 164.512 965.983 164.651 965.503 164.928C965.034 165.195 964.661 165.579 964.383 166.08C964.117 166.581 963.983 167.152 963.983 167.792C963.983 168.432 964.117 169.003 964.383 169.504C964.661 170.005 965.034 170.395 965.503 170.672C965.983 170.939 966.522 171.072 967.119 171.072Z" fill="#2D2D2D"/>
<path d="M1293.7 163.792C1294.47 163.792 1295.17 163.968 1295.78 164.32C1296.39 164.661 1296.87 165.147 1297.22 165.776C1297.56 166.395 1297.73 167.104 1297.73 167.904C1297.73 168.725 1297.55 169.456 1297.18 170.096C1296.83 170.725 1296.34 171.216 1295.7 171.568C1295.06 171.92 1294.32 172.096 1293.49 172.096C1292.09 172.096 1291.01 171.605 1290.24 170.624C1289.47 169.643 1289.09 168.288 1289.09 166.56C1289.09 164.757 1289.43 163.376 1290.11 162.416C1290.81 161.456 1291.88 160.805 1293.34 160.464L1297.12 159.6L1297.31 160.64L1293.76 161.456C1292.55 161.723 1291.67 162.197 1291.1 162.88C1290.54 163.552 1290.23 164.549 1290.18 165.872C1290.52 165.221 1290.99 164.715 1291.6 164.352C1292.21 163.979 1292.91 163.792 1293.7 163.792ZM1293.52 171.152C1294.11 171.152 1294.63 171.019 1295.09 170.752C1295.56 170.475 1295.92 170.091 1296.18 169.6C1296.44 169.109 1296.58 168.555 1296.58 167.936C1296.58 167.317 1296.45 166.773 1296.19 166.304C1295.94 165.835 1295.57 165.472 1295.1 165.216C1294.65 164.949 1294.12 164.816 1293.52 164.816C1292.92 164.816 1292.39 164.949 1291.92 165.216C1291.46 165.472 1291.1 165.835 1290.83 166.304C1290.58 166.773 1290.45 167.317 1290.45 167.936C1290.45 168.555 1290.58 169.109 1290.83 169.6C1291.1 170.091 1291.47 170.475 1291.94 170.752C1292.41 171.019 1292.93 171.152 1293.52 171.152ZM1307.52 168.144H1300.48C1300.55 169.019 1300.88 169.728 1301.49 170.272C1302.1 170.805 1302.87 171.072 1303.79 171.072C1304.32 171.072 1304.8 170.981 1305.23 170.8C1305.67 170.608 1306.05 170.331 1306.37 169.968L1307.01 170.704C1306.64 171.152 1306.17 171.493 1305.6 171.728C1305.05 171.963 1304.43 172.08 1303.76 172.08C1302.9 172.08 1302.13 171.899 1301.46 171.536C1300.8 171.163 1300.28 170.651 1299.91 170C1299.53 169.349 1299.35 168.613 1299.35 167.792C1299.35 166.971 1299.52 166.235 1299.87 165.584C1300.24 164.933 1300.73 164.427 1301.35 164.064C1301.98 163.701 1302.68 163.52 1303.46 163.52C1304.24 163.52 1304.94 163.701 1305.55 164.064C1306.17 164.427 1306.66 164.933 1307.01 165.584C1307.36 166.224 1307.54 166.96 1307.54 167.792L1307.52 168.144ZM1303.46 164.496C1302.65 164.496 1301.97 164.757 1301.41 165.28C1300.87 165.792 1300.56 166.464 1300.48 167.296H1306.45C1306.38 166.464 1306.06 165.792 1305.51 165.28C1304.96 164.757 1304.28 164.496 1303.46 164.496ZM1313.57 172.08C1312.74 172.08 1311.99 171.899 1311.33 171.536C1310.68 171.173 1310.17 170.667 1309.8 170.016C1309.42 169.355 1309.24 168.613 1309.24 167.792C1309.24 166.971 1309.42 166.235 1309.8 165.584C1310.17 164.933 1310.68 164.427 1311.33 164.064C1311.99 163.701 1312.74 163.52 1313.57 163.52C1314.3 163.52 1314.94 163.664 1315.51 163.952C1316.09 164.229 1316.54 164.64 1316.87 165.184L1316.02 165.76C1315.74 165.344 1315.39 165.035 1314.97 164.832C1314.54 164.619 1314.07 164.512 1313.57 164.512C1312.97 164.512 1312.42 164.651 1311.93 164.928C1311.45 165.195 1311.07 165.579 1310.79 166.08C1310.52 166.581 1310.39 167.152 1310.39 167.792C1310.39 168.443 1310.52 169.019 1310.79 169.52C1311.07 170.011 1311.45 170.395 1311.93 170.672C1312.42 170.939 1312.97 171.072 1313.57 171.072C1314.07 171.072 1314.54 170.971 1314.97 170.768C1315.39 170.565 1315.74 170.256 1316.02 169.84L1316.87 170.416C1316.54 170.96 1316.09 171.376 1315.51 171.664C1314.93 171.941 1314.29 172.08 1313.57 172.08ZM1326.62 163.584V172H1325.49V164.592H1320.21V172H1319.07V163.584H1326.62ZM1336.73 163.584V172H1335.59V164.592H1331.56L1331.45 166.672C1331.37 168.421 1331.16 169.765 1330.84 170.704C1330.52 171.643 1329.95 172.112 1329.13 172.112C1328.91 172.112 1328.63 172.069 1328.31 171.984L1328.39 171.008C1328.59 171.051 1328.72 171.072 1328.79 171.072C1329.23 171.072 1329.56 170.869 1329.79 170.464C1330.01 170.059 1330.16 169.557 1330.23 168.96C1330.31 168.363 1330.37 167.573 1330.43 166.592L1330.57 163.584H1336.73ZM1342.86 163.52C1343.95 163.52 1344.8 163.797 1345.38 164.352C1345.97 164.896 1346.26 165.707 1346.26 166.784V172H1345.18V170.688C1344.92 171.125 1344.54 171.467 1344.04 171.712C1343.55 171.957 1342.96 172.08 1342.28 172.08C1341.34 172.08 1340.59 171.856 1340.04 171.408C1339.49 170.96 1339.21 170.368 1339.21 169.632C1339.21 168.917 1339.46 168.341 1339.98 167.904C1340.5 167.467 1341.33 167.248 1342.46 167.248H1345.13V166.736C1345.13 166.011 1344.93 165.461 1344.52 165.088C1344.11 164.704 1343.52 164.512 1342.74 164.512C1342.21 164.512 1341.7 164.603 1341.21 164.784C1340.72 164.955 1340.3 165.195 1339.94 165.504L1339.43 164.656C1339.86 164.293 1340.37 164.016 1340.97 163.824C1341.57 163.621 1342.19 163.52 1342.86 163.52ZM1342.46 171.184C1343.1 171.184 1343.65 171.04 1344.1 170.752C1344.56 170.453 1344.9 170.027 1345.13 169.472V168.096H1342.49C1341.05 168.096 1340.33 168.597 1340.33 169.6C1340.33 170.091 1340.51 170.48 1340.89 170.768C1341.26 171.045 1341.78 171.184 1342.46 171.184ZM1355.21 164.592H1352.02V172H1350.89V164.592H1347.7V163.584H1355.21V164.592ZM1356.85 163.584H1357.99V167.312H1363.28V163.584H1364.42V172H1363.28V168.288H1357.99V172H1356.85V163.584ZM1371.12 172.08C1370.31 172.08 1369.58 171.899 1368.93 171.536C1368.28 171.163 1367.76 170.651 1367.39 170C1367.02 169.349 1366.83 168.613 1366.83 167.792C1366.83 166.971 1367.02 166.235 1367.39 165.584C1367.76 164.933 1368.28 164.427 1368.93 164.064C1369.58 163.701 1370.31 163.52 1371.12 163.52C1371.93 163.52 1372.66 163.701 1373.31 164.064C1373.96 164.427 1374.47 164.933 1374.83 165.584C1375.2 166.235 1375.39 166.971 1375.39 167.792C1375.39 168.613 1375.2 169.349 1374.83 170C1374.47 170.651 1373.96 171.163 1373.31 171.536C1372.66 171.899 1371.93 172.08 1371.12 172.08ZM1371.12 171.072C1371.72 171.072 1372.25 170.939 1372.72 170.672C1373.2 170.395 1373.57 170.005 1373.84 169.504C1374.11 169.003 1374.24 168.432 1374.24 167.792C1374.24 167.152 1374.11 166.581 1373.84 166.08C1373.57 165.579 1373.2 165.195 1372.72 164.928C1372.25 164.651 1371.72 164.512 1371.12 164.512C1370.52 164.512 1369.98 164.651 1369.5 164.928C1369.03 165.195 1368.66 165.579 1368.38 166.08C1368.12 166.581 1367.98 167.152 1367.98 167.792C1367.98 168.432 1368.12 169.003 1368.38 169.504C1368.66 170.005 1369.03 170.395 1369.5 170.672C1369.98 170.939 1370.52 171.072 1371.12 171.072Z" fill="#2D2D2D"/>
<path d="M1608.7 163.792C1609.47 163.792 1610.17 163.968 1610.78 164.32C1611.39 164.661 1611.87 165.147 1612.22 165.776C1612.56 166.395 1612.73 167.104 1612.73 167.904C1612.73 168.725 1612.55 169.456 1612.18 170.096C1611.83 170.725 1611.34 171.216 1610.7 171.568C1610.06 171.92 1609.32 172.096 1608.49 172.096C1607.09 172.096 1606.01 171.605 1605.24 170.624C1604.47 169.643 1604.09 168.288 1604.09 166.56C1604.09 164.757 1604.43 163.376 1605.11 162.416C1605.81 161.456 1606.88 160.805 1608.34 160.464L1612.12 159.6L1612.31 160.64L1608.76 161.456C1607.55 161.723 1606.67 162.197 1606.1 162.88C1605.54 163.552 1605.23 164.549 1605.18 165.872C1605.52 165.221 1605.99 164.715 1606.6 164.352C1607.21 163.979 1607.91 163.792 1608.7 163.792ZM1608.52 171.152C1609.11 171.152 1609.63 171.019 1610.09 170.752C1610.56 170.475 1610.92 170.091 1611.18 169.6C1611.44 169.109 1611.58 168.555 1611.58 167.936C1611.58 167.317 1611.45 166.773 1611.19 166.304C1610.94 165.835 1610.57 165.472 1610.1 165.216C1609.65 164.949 1609.12 164.816 1608.52 164.816C1607.92 164.816 1607.39 164.949 1606.92 165.216C1606.46 165.472 1606.1 165.835 1605.83 166.304C1605.58 166.773 1605.45 167.317 1605.45 167.936C1605.45 168.555 1605.58 169.109 1605.83 169.6C1606.1 170.091 1606.47 170.475 1606.94 170.752C1607.41 171.019 1607.93 171.152 1608.52 171.152ZM1622.52 168.144H1615.48C1615.55 169.019 1615.88 169.728 1616.49 170.272C1617.1 170.805 1617.87 171.072 1618.79 171.072C1619.32 171.072 1619.8 170.981 1620.23 170.8C1620.67 170.608 1621.05 170.331 1621.37 169.968L1622.01 170.704C1621.64 171.152 1621.17 171.493 1620.6 171.728C1620.05 171.963 1619.43 172.08 1618.76 172.08C1617.9 172.08 1617.13 171.899 1616.46 171.536C1615.8 171.163 1615.28 170.651 1614.91 170C1614.53 169.349 1614.35 168.613 1614.35 167.792C1614.35 166.971 1614.52 166.235 1614.87 165.584C1615.24 164.933 1615.73 164.427 1616.35 164.064C1616.98 163.701 1617.68 163.52 1618.46 163.52C1619.24 163.52 1619.94 163.701 1620.55 164.064C1621.17 164.427 1621.66 164.933 1622.01 165.584C1622.36 166.224 1622.54 166.96 1622.54 167.792L1622.52 168.144ZM1618.46 164.496C1617.65 164.496 1616.97 164.757 1616.41 165.28C1615.87 165.792 1615.56 166.464 1615.48 167.296H1621.45C1621.38 166.464 1621.06 165.792 1620.51 165.28C1619.96 164.757 1619.28 164.496 1618.46 164.496ZM1628.57 172.08C1627.74 172.08 1626.99 171.899 1626.33 171.536C1625.68 171.173 1625.17 170.667 1624.8 170.016C1624.42 169.355 1624.24 168.613 1624.24 167.792C1624.24 166.971 1624.42 166.235 1624.8 165.584C1625.17 164.933 1625.68 164.427 1626.33 164.064C1626.99 163.701 1627.74 163.52 1628.57 163.52C1629.3 163.52 1629.94 163.664 1630.51 163.952C1631.09 164.229 1631.54 164.64 1631.87 165.184L1631.02 165.76C1630.74 165.344 1630.39 165.035 1629.97 164.832C1629.54 164.619 1629.07 164.512 1628.57 164.512C1627.97 164.512 1627.42 164.651 1626.93 164.928C1626.45 165.195 1626.07 165.579 1625.79 166.08C1625.52 166.581 1625.39 167.152 1625.39 167.792C1625.39 168.443 1625.52 169.019 1625.79 169.52C1626.07 170.011 1626.45 170.395 1626.93 170.672C1627.42 170.939 1627.97 171.072 1628.57 171.072C1629.07 171.072 1629.54 170.971 1629.97 170.768C1630.39 170.565 1630.74 170.256 1631.02 169.84L1631.87 170.416C1631.54 170.96 1631.09 171.376 1630.51 171.664C1629.93 171.941 1629.29 172.08 1628.57 172.08ZM1641.62 163.584V172H1640.49V164.592H1635.21V172H1634.07V163.584H1641.62ZM1651.73 163.584V172H1650.59V164.592H1646.56L1646.45 166.672C1646.37 168.421 1646.16 169.765 1645.84 170.704C1645.52 171.643 1644.95 172.112 1644.13 172.112C1643.91 172.112 1643.63 172.069 1643.31 171.984L1643.39 171.008C1643.59 171.051 1643.72 171.072 1643.79 171.072C1644.23 171.072 1644.56 170.869 1644.79 170.464C1645.01 170.059 1645.16 169.557 1645.23 168.96C1645.31 168.363 1645.37 167.573 1645.43 166.592L1645.57 163.584H1651.73ZM1657.86 163.52C1658.95 163.52 1659.8 163.797 1660.38 164.352C1660.97 164.896 1661.26 165.707 1661.26 166.784V172H1660.18V170.688C1659.92 171.125 1659.54 171.467 1659.04 171.712C1658.55 171.957 1657.96 172.08 1657.28 172.08C1656.34 172.08 1655.59 171.856 1655.04 171.408C1654.49 170.96 1654.21 170.368 1654.21 169.632C1654.21 168.917 1654.46 168.341 1654.98 167.904C1655.5 167.467 1656.33 167.248 1657.46 167.248H1660.13V166.736C1660.13 166.011 1659.93 165.461 1659.52 165.088C1659.11 164.704 1658.52 164.512 1657.74 164.512C1657.21 164.512 1656.7 164.603 1656.21 164.784C1655.72 164.955 1655.3 165.195 1654.94 165.504L1654.43 164.656C1654.86 164.293 1655.37 164.016 1655.97 163.824C1656.57 163.621 1657.19 163.52 1657.86 163.52ZM1657.46 171.184C1658.1 171.184 1658.65 171.04 1659.1 170.752C1659.56 170.453 1659.9 170.027 1660.13 169.472V168.096H1657.49C1656.05 168.096 1655.33 168.597 1655.33 169.6C1655.33 170.091 1655.51 170.48 1655.89 170.768C1656.26 171.045 1656.78 171.184 1657.46 171.184ZM1670.21 164.592H1667.02V172H1665.89V164.592H1662.7V163.584H1670.21V164.592ZM1671.85 163.584H1672.99V167.312H1678.28V163.584H1679.42V172H1678.28V168.288H1672.99V172H1671.85V163.584ZM1686.12 172.08C1685.31 172.08 1684.58 171.899 1683.93 171.536C1683.28 171.163 1682.76 170.651 1682.39 170C1682.02 169.349 1681.83 168.613 1681.83 167.792C1681.83 166.971 1682.02 166.235 1682.39 165.584C1682.76 164.933 1683.28 164.427 1683.93 164.064C1684.58 163.701 1685.31 163.52 1686.12 163.52C1686.93 163.52 1687.66 163.701 1688.31 164.064C1688.96 164.427 1689.47 164.933 1689.83 165.584C1690.2 166.235 1690.39 166.971 1690.39 167.792C1690.39 168.613 1690.2 169.349 1689.83 170C1689.47 170.651 1688.96 171.163 1688.31 171.536C1687.66 171.899 1686.93 172.08 1686.12 172.08ZM1686.12 171.072C1686.72 171.072 1687.25 170.939 1687.72 170.672C1688.2 170.395 1688.57 170.005 1688.84 169.504C1689.11 169.003 1689.24 168.432 1689.24 167.792C1689.24 167.152 1689.11 166.581 1688.84 166.08C1688.57 165.579 1688.2 165.195 1687.72 164.928C1687.25 164.651 1686.72 164.512 1686.12 164.512C1685.52 164.512 1684.98 164.651 1684.5 164.928C1684.03 165.195 1683.66 165.579 1683.38 166.08C1683.12 166.581 1682.98 167.152 1682.98 167.792C1682.98 168.432 1683.12 169.003 1683.38 169.504C1683.66 170.005 1684.03 170.395 1684.5 170.672C1684.98 170.939 1685.52 171.072 1686.12 171.072Z" fill="#2D2D2D"/>
<circle cx="215" cy="142" r="5" fill="#102F28"/>
<circle cx="530" cy="142" r="5" fill="#102F28"/>
<circle cx="889" cy="142" r="5" fill="#102F28"/>
<path d="M1298 142C1298 144.761 1295.76 147 1293 147C1290.24 147 1288 144.761 1288 142C1288 139.239 1290.24 137 1293 137C1295.76 137 1298 139.239 1298 142Z" fill="#102F28"/>
<circle cx="1608" cy="142" r="5" fill="#102F28"/>
</svg>
