<svg width="490" height="51" viewBox="0 0 490 51" fill="none" xmlns="http://www.w3.org/2000/svg">
<mask id="path-1-outside-1_163_313" maskUnits="userSpaceOnUse" x="-4" y="-2" width="497" height="55" fill="black">
<rect fill="white" x="-4" y="-2" width="497" height="55"/>
<path d="M25.06 10.8L14.56 29H37.1L26.6 10.8H25.06ZM38.29 31.1H13.44L2.45 50H0L28.28 0.999997H28.98L57.33 50H49.21L38.29 31.1ZM68.5918 17.1V47.9H88.8918C91.5518 47.9 93.6285 47.5033 95.1218 46.71C96.6618 45.9167 97.7818 44.8433 98.4818 43.49C99.2285 42.09 99.6718 40.4567 99.8118 38.59C99.9985 36.7233 100.092 34.6933 100.092 32.5C100.092 30.3533 99.9985 28.3467 99.8118 26.48C99.6718 24.6133 99.2285 22.98 98.4818 21.58C97.7818 20.18 96.6618 19.0833 95.1218 18.29C93.6285 17.4967 91.5518 17.1 88.8918 17.1H68.5918ZM95.1218 15.42C97.4085 15.6533 99.3218 16.3533 100.862 17.52C102.402 18.64 103.638 20.04 104.572 21.72C105.505 23.3533 106.158 25.1267 106.532 27.04C106.905 28.9533 107.092 30.7733 107.092 32.5C107.092 34.5533 106.812 36.63 106.252 38.73C105.738 40.7833 104.805 42.65 103.452 44.33C102.145 46.01 100.348 47.3867 98.0618 48.46C95.8218 49.4867 92.9985 50 89.5918 50H61.5918V0.999997H88.8918C90.4318 0.999997 91.8785 1.11666 93.2318 1.35C94.5851 1.58333 95.7518 2.02666 96.7318 2.68C97.7585 3.28666 98.5751 4.15 99.1818 5.27C99.7885 6.34333 100.092 7.72 100.092 9.4C100.092 10.8467 99.5785 12.13 98.5518 13.25C97.5718 14.37 96.4285 15.0933 95.1218 15.42ZM88.1918 15C89.3118 15 90.1985 14.93 90.8518 14.79C91.5051 14.65 91.9951 14.37 92.3218 13.95C92.6485 13.53 92.8585 12.97 92.9518 12.27C93.0451 11.5233 93.0918 10.5667 93.0918 9.4C93.0918 7.11333 92.7651 5.50333 92.1118 4.57C91.4585 3.59 90.1518 3.1 88.1918 3.1H68.5918V15H88.1918ZM155.488 0.999997L154.298 3.1H134.628L134.488 50H128.188V3.1H107.188L108.378 0.999997H155.488ZM152.031 25.57C152.031 21.3233 152.918 17.6133 154.691 14.44C156.511 11.22 158.821 8.56 161.621 6.46C164.468 4.31333 167.665 2.72666 171.211 1.7C174.758 0.626663 178.281 0.0899959 181.781 0.0899959C185.281 0.0899959 188.805 0.626663 192.351 1.7C195.898 2.72666 199.095 4.31333 201.941 6.46C204.788 8.56 207.098 11.22 208.871 14.44C210.691 17.6133 211.601 21.3233 211.601 25.57C211.601 29.77 210.691 33.4567 208.871 36.63C207.098 39.8033 204.788 42.44 201.941 44.54C199.095 46.64 195.898 48.2267 192.351 49.3C188.805 50.3733 185.281 50.91 181.781 50.91C178.281 50.91 174.758 50.3733 171.211 49.3C167.665 48.2267 164.468 46.64 161.621 44.54C158.821 42.44 156.511 39.8033 154.691 36.63C152.918 33.4567 152.031 29.77 152.031 25.57ZM159.311 25.15C159.311 28.3233 159.801 31.3567 160.781 34.25C161.761 37.1433 163.208 39.6867 165.121 41.88C167.035 44.0733 169.391 45.8233 172.191 47.13C174.991 48.39 178.211 49.02 181.851 49.02C185.491 49.02 188.711 48.39 191.511 47.13C194.311 45.87 196.645 44.1667 198.511 42.02C200.425 39.8733 201.871 37.4 202.851 34.6C203.831 31.8 204.345 28.86 204.391 25.78C204.391 22.6067 203.878 19.5733 202.851 16.68C201.871 13.74 200.425 11.1733 198.511 8.98C196.598 6.74 194.241 4.96667 191.441 3.66C188.641 2.35333 185.421 1.72333 181.781 1.77C178.141 1.81667 174.921 2.49333 172.121 3.8C169.321 5.06 166.965 6.76333 165.051 8.91C163.185 11.01 161.761 13.4833 160.781 16.33C159.801 19.13 159.311 22.07 159.311 25.15ZM252.129 15C253.249 15 254.135 14.93 254.789 14.79C255.442 14.65 255.932 14.37 256.259 13.95C256.585 13.53 256.795 12.97 256.889 12.27C256.982 11.5233 257.029 10.5667 257.029 9.4C257.029 8.28 256.982 7.32333 256.889 6.53C256.795 5.69 256.585 5.03666 256.259 4.57C255.932 4.05666 255.442 3.68333 254.789 3.45C254.135 3.21667 253.249 3.1 252.129 3.1H226.229V15H252.129ZM226.229 17.1V50H219.229V0.999997H253.529C255.069 0.999997 256.515 1.16333 257.869 1.49C259.222 1.77 260.412 2.23666 261.439 2.89C262.465 3.54333 263.259 4.40666 263.819 5.48C264.425 6.55333 264.729 7.86 264.729 9.4C264.729 10.94 264.425 12.2233 263.819 13.25C263.259 14.23 262.465 15 261.439 15.56C260.412 16.12 259.222 16.5167 257.869 16.75C256.515 16.9833 255.069 17.1 253.529 17.1H226.229ZM317.644 45.45C314.844 47.27 311.811 48.6467 308.544 49.58C305.277 50.4667 302.011 50.91 298.744 50.91C295.244 50.91 291.721 50.3733 288.174 49.3C284.627 48.2267 281.431 46.64 278.584 44.54C275.784 42.44 273.474 39.8033 271.654 36.63C269.881 33.4567 268.994 29.77 268.994 25.57C268.994 21.3233 269.881 17.6133 271.654 14.44C273.474 11.22 275.784 8.56 278.584 6.46C281.431 4.31333 284.627 2.72666 288.174 1.7C291.721 0.626663 295.244 0.0899959 298.744 0.0899959C302.011 0.0899959 305.277 0.556663 308.544 1.49C311.811 2.37667 314.844 3.73 317.644 5.55L315.614 9.12C313.654 6.83333 311.274 5.03667 308.474 3.73C305.674 2.37666 302.431 1.72333 298.744 1.77C295.104 1.81667 291.884 2.49333 289.084 3.8C286.284 5.06 283.927 6.76333 282.014 8.91C280.147 11.01 278.724 13.4833 277.744 16.33C276.764 19.13 276.274 22.07 276.274 25.15C276.274 28.3233 276.764 31.3567 277.744 34.25C278.724 37.1433 280.171 39.6867 282.084 41.88C283.997 44.0733 286.354 45.8233 289.154 47.13C291.954 48.39 295.174 49.02 298.814 49.02C302.547 48.9733 305.791 48.32 308.544 47.06C311.344 45.8 313.701 44.0733 315.614 41.88L317.644 45.45ZM357.068 15L377.368 50H369.248L350.278 17.1H333.758V50H326.758V0.999997H333.758V15H354.198L362.388 0.999997H365.118L357.068 15ZM424.056 6.25L387.166 50H382.266V0.999997H389.266V43.14H390.176L425.666 0.999997H431.966V50H424.966V6.25H424.056ZM450.857 15H478.437L477.247 17.1H450.857V47.9H489.357L488.167 50H443.857V0.999997H486.557L485.367 3.1H450.857V15Z"/>
</mask>
<path d="M25.06 10.8V8.8H23.9049L23.3276 9.80055L25.06 10.8ZM14.56 29L12.8276 28.0006L11.0972 31H14.56V29ZM37.1 29V31H40.5628L38.8324 28.0006L37.1 29ZM26.6 10.8L28.3324 9.80055L27.7551 8.8H26.6V10.8ZM38.29 31.1L40.0217 30.0994L39.4443 29.1H38.29V31.1ZM13.44 31.1V29.1H12.2894L11.7111 30.0946L13.44 31.1ZM2.45 50V52H3.60058L4.17895 51.0054L2.45 50ZM0 50L-1.73221 49.0003L-3.46348 52H0V50ZM28.28 0.999997V-1H27.1251L26.5478 0.00026616L28.28 0.999997ZM28.98 0.999997L30.7111 -0.00158842L30.1335 -1H28.98V0.999997ZM57.33 50V52H60.7978L59.0611 48.9984L57.33 50ZM49.21 50L47.4783 51.0006L48.0557 52H49.21V50ZM23.3276 9.80055L12.8276 28.0006L16.2924 29.9994L26.7924 11.7994L23.3276 9.80055ZM14.56 31H37.1V27H14.56V31ZM38.8324 28.0006L28.3324 9.80055L24.8676 11.7994L35.3676 29.9994L38.8324 28.0006ZM26.6 8.8H25.06V12.8H26.6V8.8ZM38.29 29.1H13.44V33.1H38.29V29.1ZM11.7111 30.0946L0.72105 48.9946L4.17895 51.0054L15.1689 32.1054L11.7111 30.0946ZM2.45 48H0V52H2.45V48ZM1.73221 50.9997L30.0122 1.99973L26.5478 0.00026616L-1.73221 49.0003L1.73221 50.9997ZM28.28 3H28.98V-1H28.28V3ZM27.2489 2.00158L55.5989 51.0016L59.0611 48.9984L30.7111 -0.00158842L27.2489 2.00158ZM57.33 48H49.21V52H57.33V48ZM50.9417 48.9994L40.0217 30.0994L36.5583 32.1006L47.4783 51.0006L50.9417 48.9994ZM68.5918 17.1V15.1H66.5918V17.1H68.5918ZM68.5918 47.9H66.5918V49.9H68.5918V47.9ZM95.1218 46.71L94.2059 44.9321L94.1947 44.9378L94.1835 44.9438L95.1218 46.71ZM98.4818 43.49L96.7171 42.5488L96.7112 42.56L96.7054 42.5712L98.4818 43.49ZM99.8118 38.59L97.8217 38.391L97.8193 38.4157L97.8174 38.4404L99.8118 38.59ZM99.8118 26.48L97.8174 26.6296L97.8193 26.6543L97.8217 26.679L99.8118 26.48ZM98.4818 21.58L96.6929 22.4744L96.7047 22.498L96.7171 22.5212L98.4818 21.58ZM95.1218 18.29L94.1835 20.0562L94.1947 20.0622L94.2059 20.0679L95.1218 18.29ZM95.1218 15.42L94.6367 13.4797L94.9188 17.4097L95.1218 15.42ZM100.862 17.52L99.6541 19.1142L99.6697 19.126L99.6855 19.1375L100.862 17.52ZM104.572 21.72L102.823 22.6913L102.829 22.7018L102.835 22.7123L104.572 21.72ZM106.252 38.73L104.319 38.2147L104.315 38.2298L104.312 38.2449L106.252 38.73ZM103.452 44.33L101.894 43.0753L101.884 43.0886L101.873 43.1021L103.452 44.33ZM98.0618 48.46L98.8951 50.2781L98.9034 50.2743L98.9116 50.2705L98.0618 48.46ZM61.5918 50H59.5918V52H61.5918V50ZM61.5918 0.999997V-1H59.5918V0.999997H61.5918ZM93.2318 1.35L92.892 3.32092L93.2318 1.35ZM96.7318 2.68L95.6224 4.3441L95.6676 4.37422L95.7143 4.40185L96.7318 2.68ZM99.1818 5.27L97.4232 6.22256L97.4318 6.23841L97.4407 6.25411L99.1818 5.27ZM98.5518 13.25L97.0775 11.8985L97.0619 11.9156L97.0466 11.933L98.5518 13.25ZM92.9518 12.27L94.9343 12.5343L94.9353 12.5262L94.9364 12.5181L92.9518 12.27ZM92.1118 4.57L90.4477 5.6794L90.4603 5.6983L90.4733 5.71692L92.1118 4.57ZM68.5918 3.1V1.1H66.5918V3.1H68.5918ZM68.5918 15H66.5918V17H68.5918V15ZM66.5918 17.1V47.9H70.5918V17.1H66.5918ZM68.5918 49.9H88.8918V45.9H68.5918V49.9ZM88.8918 49.9C91.7098 49.9 94.1583 49.4865 96.0601 48.4762L94.1835 44.9438C93.0986 45.5201 91.3938 45.9 88.8918 45.9V49.9ZM96.0377 48.4879C97.8943 47.5315 99.3421 46.1801 100.258 44.4088L96.7054 42.5712C96.2215 43.5065 95.4293 44.3018 94.2059 44.9321L96.0377 48.4879ZM100.247 44.4312C101.145 42.7461 101.649 40.8341 101.806 38.7396L97.8174 38.4404C97.6945 40.0793 97.3117 41.4339 96.7171 42.5488L100.247 44.4312ZM101.802 38.789C101.996 36.8463 102.092 34.749 102.092 32.5H98.0918C98.0918 34.6377 98.0008 36.6004 97.8217 38.391L101.802 38.789ZM102.092 32.5C102.092 30.2961 101.996 28.2224 101.802 26.281L97.8217 26.679C98.0009 28.4709 98.0918 30.4105 98.0918 32.5H102.092ZM101.806 26.3304C101.649 24.2359 101.145 22.3239 100.247 20.6388L96.7171 22.5212C97.3117 23.6361 97.6945 24.9907 97.8174 26.6296L101.806 26.3304ZM100.271 20.6856C99.3606 18.8654 97.9128 17.478 96.0377 16.5121L94.2059 20.0679C95.4108 20.6887 96.203 21.4946 96.6929 22.4744L100.271 20.6856ZM96.0601 16.5238C94.1583 15.5135 91.7098 15.1 88.8918 15.1V19.1C91.3938 19.1 93.0986 19.4799 94.1835 20.0562L96.0601 16.5238ZM88.8918 15.1H68.5918V19.1H88.8918V15.1ZM94.9188 17.4097C96.9104 17.6129 98.4577 18.2078 99.6541 19.1142L102.07 15.9258C100.186 14.4989 97.9065 13.6938 95.3248 13.4303L94.9188 17.4097ZM99.6855 19.1375C100.988 20.0846 102.03 21.2633 102.823 22.6913L106.32 20.7487C105.247 18.8167 103.816 17.1954 102.038 15.9025L99.6855 19.1375ZM102.835 22.7123C103.657 24.1494 104.236 25.7159 104.569 27.423L108.495 26.657C108.081 24.5374 107.354 22.5573 106.308 20.7277L102.835 22.7123ZM104.569 27.423C104.921 29.226 105.092 30.9171 105.092 32.5H109.092C109.092 30.6296 108.89 28.6806 108.495 26.657L104.569 27.423ZM105.092 32.5C105.092 34.3695 104.837 36.273 104.319 38.2147L108.184 39.2453C108.786 36.987 109.092 34.7372 109.092 32.5H105.092ZM104.312 38.2449C103.87 40.0115 103.069 41.6166 101.894 43.0753L105.009 45.5847C106.541 43.6834 107.607 41.5552 108.192 39.2151L104.312 38.2449ZM101.873 43.1021C100.793 44.4907 99.2662 45.6853 97.212 46.6495L98.9116 50.2705C101.431 49.088 103.497 47.5293 105.031 45.5579L101.873 43.1021ZM97.2285 46.6419C95.3299 47.5121 92.8141 48 89.5918 48V52C93.1828 52 96.3137 51.4613 98.8951 50.2781L97.2285 46.6419ZM89.5918 48H61.5918V52H89.5918V48ZM63.5918 50V0.999997H59.5918V50H63.5918ZM61.5918 3H88.8918V-1H61.5918V3ZM88.8918 3C90.3314 3 91.6634 3.1091 92.892 3.32092L93.5716 -0.620924C92.0935 -0.875771 90.5322 -1 88.8918 -1V3ZM92.892 3.32092C94.0154 3.51461 94.9101 3.86922 95.6224 4.3441L97.8412 1.0159C96.5935 0.184108 95.1548 -0.347955 93.5716 -0.620924L92.892 3.32092ZM95.7143 4.40185C96.4074 4.81138 96.977 5.39887 97.4232 6.22256L100.94 4.31743C100.173 2.90113 99.1095 1.76194 97.7493 0.958143L95.7143 4.40185ZM97.4407 6.25411C97.8271 6.9378 98.0918 7.9451 98.0918 9.4H102.092C102.092 7.49489 101.75 5.74886 100.923 4.28588L97.4407 6.25411ZM98.0918 9.4C98.0918 10.3193 97.7847 11.1271 97.0775 11.8985L100.026 14.6014C101.372 13.1329 102.092 11.374 102.092 9.4H98.0918ZM97.0466 11.933C96.3057 12.7797 95.5065 13.2623 94.6367 13.4797L95.6069 17.3603C97.3504 16.9244 98.8379 15.9603 100.057 14.567L97.0466 11.933ZM88.1918 17C89.3718 17 90.4185 16.9283 91.2709 16.7456L90.4327 12.8344C89.9784 12.9317 89.2518 13 88.1918 13V17ZM91.2709 16.7456C92.2633 16.5329 93.2171 16.0565 93.9005 15.1779L90.7431 12.7221C90.7497 12.7136 90.7491 12.7202 90.717 12.7385C90.68 12.7597 90.5941 12.7998 90.4327 12.8344L91.2709 16.7456ZM93.9005 15.1779C94.5047 14.4011 94.8089 13.4742 94.9343 12.5343L90.9693 12.0057C90.908 12.4658 90.7922 12.6589 90.7431 12.7221L93.9005 15.1779ZM94.9364 12.5181C95.0439 11.6573 95.0918 10.6098 95.0918 9.4H91.0918C91.0918 10.5235 91.0463 11.3893 90.9672 12.0219L94.9364 12.5181ZM95.0918 9.4C95.0918 7.04556 94.7791 4.8929 93.7503 3.42307L90.4733 5.71692C90.7511 6.11376 91.0918 7.18111 91.0918 9.4H95.0918ZM93.7759 3.4606C92.5573 1.63271 90.3709 1.1 88.1918 1.1V5.1C89.9327 5.1 90.3596 5.54729 90.4477 5.6794L93.7759 3.4606ZM88.1918 1.1H68.5918V5.1H88.1918V1.1ZM66.5918 3.1V15H70.5918V3.1H66.5918ZM68.5918 17H88.1918V13H68.5918V17ZM155.488 0.999997L157.228 1.98602L158.92 -1H155.488V0.999997ZM154.298 3.1V5.1H155.463L156.038 4.08602L154.298 3.1ZM134.628 3.1V1.1H132.633L132.628 3.09403L134.628 3.1ZM134.488 50V52H136.482L136.487 50.006L134.488 50ZM128.188 50H126.188V52H128.188V50ZM128.188 3.1H130.188V1.1H128.188V3.1ZM107.188 3.1L105.447 2.11397L103.755 5.1H107.188V3.1ZM108.378 0.999997V-1H107.212L106.637 0.0139722L108.378 0.999997ZM153.747 0.0139714L152.557 2.11397L156.038 4.08602L157.228 1.98602L153.747 0.0139714ZM154.298 1.1H134.628V5.1H154.298V1.1ZM132.628 3.09403L132.488 49.994L136.487 50.006L136.627 3.10597L132.628 3.09403ZM134.488 48H128.188V52H134.488V48ZM130.188 50V3.1H126.188V50H130.188ZM128.188 1.1H107.188V5.1H128.188V1.1ZM108.928 4.08602L110.118 1.98602L106.637 0.0139722L105.447 2.11397L108.928 4.08602ZM108.378 3H155.488V-1H108.378V3ZM154.691 14.44L152.95 13.4559L152.945 13.4644L154.691 14.44ZM161.621 6.46L162.821 8.06L162.825 8.05685L161.621 6.46ZM171.211 1.7L171.767 3.62112L171.779 3.61776L171.791 3.61426L171.211 1.7ZM192.351 1.7L191.772 3.61426L191.784 3.61776L191.795 3.62112L192.351 1.7ZM201.941 6.46L200.737 8.05685L200.745 8.06319L200.754 8.06945L201.941 6.46ZM208.871 14.44L207.119 15.4048L207.128 15.42L207.136 15.435L208.871 14.44ZM208.871 36.63L207.136 35.635L207.131 35.6446L207.125 35.6544L208.871 36.63ZM201.941 44.54L203.129 46.1494L203.129 46.1494L201.941 44.54ZM192.351 49.3L192.931 51.2143L192.931 51.2143L192.351 49.3ZM171.211 49.3L171.791 47.3857L171.791 47.3857L171.211 49.3ZM161.621 44.54L160.421 46.14L160.428 46.1447L160.434 46.1494L161.621 44.54ZM154.691 36.63L152.945 37.6056L152.951 37.6154L152.956 37.625L154.691 36.63ZM160.781 34.25L158.887 34.8916L158.887 34.8916L160.781 34.25ZM165.121 41.88L163.614 43.1947L163.614 43.1947L165.121 41.88ZM172.191 47.13L171.345 48.9424L171.358 48.9482L171.371 48.9538L172.191 47.13ZM191.511 47.13L192.332 48.9538L192.332 48.9538L191.511 47.13ZM198.511 42.02L197.018 40.6893L197.01 40.6984L197.002 40.7076L198.511 42.02ZM202.851 34.6L200.964 33.9393L200.964 33.9393L202.851 34.6ZM204.391 25.78L206.391 25.8103L206.391 25.7951V25.78H204.391ZM202.851 16.68L200.954 17.3125L200.96 17.3307L200.966 17.3488L202.851 16.68ZM198.511 8.98L196.991 10.279L196.997 10.2869L197.004 10.2947L198.511 8.98ZM191.441 3.66L192.287 1.84763L192.287 1.84763L191.441 3.66ZM181.781 1.77L181.807 3.76983L181.807 3.76983L181.781 1.77ZM172.121 3.8L172.942 5.62384L172.955 5.61819L172.967 5.61236L172.121 3.8ZM165.051 8.91L163.558 7.57926L163.556 7.58127L165.051 8.91ZM160.781 16.33L162.669 16.9907L162.672 16.981L160.781 16.33ZM154.031 25.57C154.031 21.6071 154.857 18.2441 156.437 15.4156L152.945 13.4644C150.979 16.9826 150.031 21.0396 150.031 25.57H154.031ZM156.432 15.4241C158.124 12.4307 160.255 9.98495 162.821 8.06L160.421 4.86C157.388 7.13505 154.898 10.0093 152.95 13.4559L156.432 15.4241ZM162.825 8.05685C165.471 6.06205 168.446 4.58251 171.767 3.62112L170.655 -0.221132C166.883 0.870812 163.465 2.56461 160.417 4.86314L162.825 8.05685ZM171.791 3.61426C175.16 2.59443 178.489 2.09 181.781 2.09V-1.91C178.074 -1.91 174.355 -1.3411 170.632 -0.214265L171.791 3.61426ZM181.781 2.09C185.074 2.09 188.402 2.59443 191.772 3.61426L192.931 -0.214265C189.207 -1.3411 185.489 -1.91 181.781 -1.91V2.09ZM191.795 3.62112C195.116 4.58251 198.092 6.06205 200.737 8.05685L203.145 4.86314C200.097 2.56461 196.68 0.870812 192.907 -0.221132L191.795 3.62112ZM200.754 8.06945C203.359 9.99112 205.48 12.4278 207.119 15.4048L210.623 13.4752C208.716 10.0122 206.217 7.12888 203.129 4.85055L200.754 8.06945ZM207.136 15.435C208.756 18.2598 209.601 21.6157 209.601 25.57H213.601C213.601 21.031 212.626 16.9669 210.606 13.445L207.136 15.435ZM209.601 25.57C209.601 29.4733 208.758 32.8069 207.136 35.635L210.606 37.625C212.624 34.1064 213.601 30.0667 213.601 25.57H209.601ZM207.125 35.6544C205.487 38.5861 203.365 41.0044 200.754 42.9306L203.129 46.1494C206.211 43.8756 208.709 41.0205 210.617 37.6056L207.125 35.6544ZM200.754 42.9306C198.1 44.8886 195.111 46.3754 191.772 47.3857L192.931 51.2143C196.685 50.078 200.089 48.3914 203.129 46.1494L200.754 42.9306ZM191.772 47.3857C188.402 48.4056 185.074 48.91 181.781 48.91V52.91C185.489 52.91 189.207 52.3411 192.931 51.2143L191.772 47.3857ZM181.781 48.91C178.489 48.91 175.16 48.4056 171.791 47.3857L170.632 51.2143C174.355 52.3411 178.074 52.91 181.781 52.91V48.91ZM171.791 47.3857C168.452 46.3754 165.463 44.8886 162.809 42.9306L160.434 46.1494C163.473 48.3914 166.877 50.078 170.632 51.2143L171.791 47.3857ZM162.821 42.94C160.249 41.0105 158.117 38.5833 156.426 35.635L152.956 37.625C154.905 41.0234 157.394 43.8695 160.421 46.14L162.821 42.94ZM156.437 35.6544C154.855 32.8227 154.031 29.482 154.031 25.57H150.031C150.031 30.058 150.981 34.0906 152.945 37.6056L156.437 35.6544ZM157.311 25.15C157.311 28.533 157.834 31.7837 158.887 34.8916L162.676 33.6084C161.768 30.9297 161.311 28.1137 161.311 25.15H157.311ZM158.887 34.8916C159.947 38.02 161.521 40.7948 163.614 43.1947L166.628 40.5653C164.895 38.5785 163.576 36.2667 162.676 33.6084L158.887 34.8916ZM163.614 43.1947C165.722 45.611 168.309 47.5251 171.345 48.9424L173.037 45.3176C170.474 44.1215 168.347 42.5356 166.628 40.5653L163.614 43.1947ZM171.371 48.9538C174.472 50.3495 177.98 51.02 181.851 51.02V47.02C178.442 47.02 175.511 46.4305 173.012 45.3062L171.371 48.9538ZM181.851 51.02C185.722 51.02 189.231 50.3495 192.332 48.9538L190.691 45.3062C188.192 46.4305 185.26 47.02 181.851 47.02V51.02ZM192.332 48.9538C195.375 47.5847 197.949 45.7142 200.02 43.3324L197.002 40.7076C195.34 42.6191 193.248 44.1553 190.691 45.3062L192.332 48.9538ZM200.004 43.3507C202.097 41.0025 203.675 38.2997 204.739 35.2607L200.964 33.9393C200.067 36.5003 198.752 38.7442 197.018 40.6893L200.004 43.3507ZM204.739 35.2607C205.793 32.2502 206.341 29.0968 206.391 25.8103L202.391 25.7497C202.348 28.6232 201.87 31.3498 200.964 33.9393L204.739 35.2607ZM206.391 25.78C206.391 22.3866 205.842 19.1265 204.736 16.0112L200.966 17.3488C201.914 20.0202 202.391 22.8268 202.391 25.78H206.391ZM204.749 16.0475C203.69 12.873 202.117 10.0706 200.018 7.66526L197.004 10.2947C198.732 12.276 200.052 14.607 200.954 17.3125L204.749 16.0475ZM200.032 7.68103C197.924 5.21301 195.333 3.26917 192.287 1.84763L190.595 5.47236C193.149 6.66416 195.272 8.26699 196.991 10.279L200.032 7.68103ZM192.287 1.84763C189.17 0.39298 185.643 -0.27968 181.756 -0.229836L181.807 3.76983C185.199 3.72634 188.113 4.31368 190.595 5.47236L192.287 1.84763ZM181.756 -0.229836C177.882 -0.180175 174.374 0.541573 171.275 1.98763L172.967 5.61236C175.468 4.44509 178.401 3.81351 181.807 3.76983L181.756 -0.229836ZM171.301 1.97616C168.262 3.34353 165.671 5.20884 163.558 7.57926L166.544 10.2407C168.258 8.31783 170.381 6.77647 172.942 5.62384L171.301 1.97616ZM163.556 7.58127C161.502 9.89258 159.95 12.6005 158.89 15.679L162.672 16.981C163.573 14.3661 164.867 12.1274 166.546 10.2387L163.556 7.58127ZM158.894 15.6693C157.836 18.6897 157.311 21.8537 157.311 25.15H161.311C161.311 22.2863 161.766 19.5703 162.669 16.9907L158.894 15.6693ZM254.789 14.79L254.369 12.8344L254.789 14.79ZM256.259 13.95L257.837 15.1779L257.837 15.1779L256.259 13.95ZM256.889 12.27L258.871 12.5343L258.872 12.5262L258.873 12.5181L256.889 12.27ZM256.889 6.53L254.901 6.75087L254.902 6.76368L256.889 6.53ZM256.259 4.57L254.571 5.64375L254.595 5.68087L254.62 5.71692L256.259 4.57ZM254.789 3.45L254.116 5.33348L254.789 3.45ZM226.229 3.1V1.1H224.229V3.1H226.229ZM226.229 15H224.229V17H226.229V15ZM226.229 17.1V15.1H224.229V17.1H226.229ZM226.229 50V52H228.229V50H226.229ZM219.229 50H217.229V52H219.229V50ZM219.229 0.999997V-1H217.229V0.999997H219.229ZM257.869 1.49L257.399 3.43416L257.431 3.44187L257.463 3.44852L257.869 1.49ZM261.439 2.89L262.512 1.20268L262.512 1.20267L261.439 2.89ZM263.819 5.48L262.045 6.40513L262.061 6.43489L262.077 6.46411L263.819 5.48ZM263.819 13.25L262.097 12.2325L262.089 12.2451L262.082 12.2577L263.819 13.25ZM261.439 15.56L262.396 17.3158L262.396 17.3158L261.439 15.56ZM257.869 16.75L258.208 18.7209L258.208 18.7209L257.869 16.75ZM252.129 17C253.309 17 254.355 16.9283 255.208 16.7456L254.369 12.8344C253.915 12.9317 253.188 13 252.129 13V17ZM255.208 16.7456C256.2 16.5329 257.154 16.0565 257.837 15.1779L254.68 12.7221C254.686 12.7136 254.686 12.7202 254.654 12.7385C254.617 12.7597 254.531 12.7998 254.369 12.8344L255.208 16.7456ZM257.837 15.1779C258.441 14.4011 258.746 13.4742 258.871 12.5343L254.906 12.0057C254.845 12.4658 254.729 12.6589 254.68 12.7221L257.837 15.1779ZM258.873 12.5181C258.981 11.6573 259.029 10.6098 259.029 9.4H255.029C255.029 10.5235 254.983 11.3893 254.904 12.0219L258.873 12.5181ZM259.029 9.4C259.029 8.23031 258.98 7.19106 258.875 6.29632L254.902 6.76368C254.984 7.4556 255.029 8.32969 255.029 9.4H259.029ZM258.876 6.30913C258.763 5.28515 258.487 4.26539 257.897 3.42307L254.62 5.71692C254.684 5.80794 254.828 6.09484 254.901 6.75086L258.876 6.30913ZM257.946 3.49624C257.348 2.556 256.472 1.92743 255.461 1.56651L254.116 5.33348C254.412 5.43923 254.516 5.55733 254.571 5.64375L257.946 3.49624ZM255.461 1.56651C254.5 1.2234 253.355 1.1 252.129 1.1V5.1C253.142 5.1 253.77 5.20993 254.116 5.33348L255.461 1.56651ZM252.129 1.1H226.229V5.1H252.129V1.1ZM224.229 3.1V15H228.229V3.1H224.229ZM226.229 17H252.129V13H226.229V17ZM224.229 17.1V50H228.229V17.1H224.229ZM226.229 48H219.229V52H226.229V48ZM221.229 50V0.999997H217.229V50H221.229ZM219.229 3H253.529V-1H219.229V3ZM253.529 3C254.927 3 256.215 3.14827 257.399 3.43416L258.338 -0.454165C256.816 -0.82161 255.21 -1 253.529 -1V3ZM257.463 3.44852C258.611 3.68599 259.568 4.07058 260.365 4.57732L262.512 1.20267C261.255 0.40275 259.833 -0.145997 258.274 -0.468522L257.463 3.44852ZM260.365 4.57732C261.097 5.04335 261.648 5.64449 262.045 6.40513L265.592 4.55486C264.869 3.16884 263.833 2.04331 262.512 1.20268L260.365 4.57732ZM262.077 6.46411C262.477 7.17118 262.729 8.12013 262.729 9.4H266.729C266.729 7.59986 266.373 5.93548 265.56 4.49588L262.077 6.46411ZM262.729 9.4C262.729 10.6842 262.475 11.5915 262.097 12.2325L265.54 14.2675C266.375 12.8552 266.729 11.1958 266.729 9.4H262.729ZM262.082 12.2577C261.713 12.904 261.194 13.4149 260.481 13.8042L262.396 17.3158C263.736 16.5851 264.804 15.556 265.555 14.2423L262.082 12.2577ZM260.481 13.8042C259.677 14.2426 258.702 14.5767 257.529 14.7791L258.208 18.7209C259.741 18.4566 261.147 17.9974 262.396 17.3158L260.481 13.8042ZM257.529 14.7791C256.3 14.9909 254.968 15.1 253.529 15.1V19.1C255.169 19.1 256.73 18.9758 258.208 18.7209L257.529 14.7791ZM253.529 15.1H226.229V19.1H253.529V15.1ZM317.644 45.45L318.734 47.1269L320.314 46.0997L319.383 44.4614L317.644 45.45ZM308.544 49.58L309.068 51.5102L309.081 51.5067L309.094 51.503L308.544 49.58ZM288.174 49.3L288.753 47.3857L288.753 47.3857L288.174 49.3ZM278.584 44.54L277.384 46.14L277.39 46.1447L277.397 46.1494L278.584 44.54ZM271.654 36.63L269.908 37.6056L269.914 37.6154L269.919 37.625L271.654 36.63ZM271.654 14.44L269.913 13.4559L269.908 13.4644L271.654 14.44ZM278.584 6.46L279.784 8.06L279.788 8.05685L278.584 6.46ZM288.174 1.7L288.73 3.62112L288.742 3.61776L288.753 3.61426L288.174 1.7ZM308.544 1.49L307.995 3.41305L308.007 3.41669L308.02 3.42016L308.544 1.49ZM317.644 5.55L319.383 6.5386L320.314 4.90025L318.734 3.87311L317.644 5.55ZM315.614 9.12L314.096 10.4216L315.947 12.5812L317.353 10.1086L315.614 9.12ZM308.474 3.73L307.604 5.5307L307.616 5.53661L307.628 5.54237L308.474 3.73ZM298.744 1.77L298.719 -0.229841L298.719 -0.229836L298.744 1.77ZM289.084 3.8L289.905 5.62384L289.917 5.61819L289.93 5.61236L289.084 3.8ZM282.014 8.91L280.521 7.57926L280.519 7.58127L282.014 8.91ZM277.744 16.33L279.632 16.9907L279.635 16.981L277.744 16.33ZM277.744 34.25L275.85 34.8916L275.85 34.8916L277.744 34.25ZM282.084 41.88L280.577 43.1947L280.577 43.1947L282.084 41.88ZM289.154 47.13L288.308 48.9424L288.321 48.9482L288.333 48.9538L289.154 47.13ZM298.814 49.02V51.02H298.827L298.839 51.0198L298.814 49.02ZM308.544 47.06L307.723 45.2361L307.712 45.2414L308.544 47.06ZM315.614 41.88L317.353 40.8914L315.96 38.4415L314.107 40.5653L315.614 41.88ZM316.554 43.7731C313.924 45.4827 311.073 46.7774 307.995 47.657L309.094 51.503C312.548 50.516 315.764 49.0573 318.734 47.1269L316.554 43.7731ZM308.02 47.6498C304.918 48.4918 301.828 48.91 298.744 48.91V52.91C302.194 52.91 305.637 52.4415 309.068 51.5102L308.02 47.6498ZM298.744 48.91C295.452 48.91 292.123 48.4056 288.753 47.3857L287.595 51.2143C291.318 52.3411 295.037 52.91 298.744 52.91V48.91ZM288.753 47.3857C285.415 46.3754 282.426 44.8886 279.771 42.9306L277.397 46.1494C280.436 48.3914 283.84 50.078 287.595 51.2143L288.753 47.3857ZM279.784 42.94C277.212 41.0105 275.08 38.5833 273.389 35.635L269.919 37.625C271.868 41.0234 274.357 43.8695 277.384 46.14L279.784 42.94ZM273.4 35.6544C271.818 32.8227 270.994 29.482 270.994 25.57H266.994C266.994 30.058 267.944 34.0906 269.908 37.6056L273.4 35.6544ZM270.994 25.57C270.994 21.6071 271.819 18.2441 273.4 15.4156L269.908 13.4644C267.942 16.9826 266.994 21.0396 266.994 25.57H270.994ZM273.395 15.4241C275.087 12.4307 277.218 9.98495 279.784 8.06L277.384 4.86C274.351 7.13505 271.861 10.0093 269.913 13.4559L273.395 15.4241ZM279.788 8.05685C282.434 6.06205 285.409 4.58251 288.73 3.62112L287.618 -0.221132C283.846 0.870812 280.428 2.56461 277.38 4.86314L279.788 8.05685ZM288.753 3.61426C292.123 2.59443 295.452 2.09 298.744 2.09V-1.91C295.037 -1.91 291.318 -1.3411 287.595 -0.214265L288.753 3.61426ZM298.744 2.09C301.818 2.09 304.9 2.52871 307.995 3.41305L309.094 -0.433049C305.655 -1.41538 302.204 -1.91 298.744 -1.91V2.09ZM308.02 3.42016C311.089 4.2531 313.931 5.52178 316.554 7.22688L318.734 3.87311C315.757 1.93821 312.533 0.500231 309.068 -0.440164L308.02 3.42016ZM315.906 4.56139L313.876 8.13139L317.353 10.1086L319.383 6.5386L315.906 4.56139ZM317.133 7.81841C314.982 5.30984 312.371 3.34151 309.32 1.91763L307.628 5.54237C310.177 6.73182 312.326 8.35682 314.096 10.4216L317.133 7.81841ZM309.344 1.9293C306.218 0.418238 302.658 -0.27971 298.719 -0.229841L298.769 3.76984C302.203 3.72637 305.13 4.33509 307.604 5.5307L309.344 1.9293ZM298.719 -0.229836C294.845 -0.180175 291.337 0.541573 288.238 1.98763L289.93 5.61236C292.431 4.44509 295.363 3.81351 298.77 3.76983L298.719 -0.229836ZM288.263 1.97616C285.225 3.34353 282.634 5.20884 280.521 7.57926L283.507 10.2407C285.221 8.31783 287.343 6.77647 289.905 5.62384L288.263 1.97616ZM280.519 7.58127C278.465 9.89258 276.913 12.6005 275.853 15.679L279.635 16.981C280.535 14.3661 281.83 12.1274 283.509 10.2387L280.519 7.58127ZM275.856 15.6693C274.799 18.6897 274.274 21.8537 274.274 25.15H278.274C278.274 22.2863 278.729 19.5703 279.632 16.9907L275.856 15.6693ZM274.274 25.15C274.274 28.533 274.797 31.7837 275.85 34.8916L279.638 33.6084C278.731 30.9297 278.274 28.1137 278.274 25.15H274.274ZM275.85 34.8916C276.909 38.02 278.483 40.7948 280.577 43.1947L283.591 40.5653C281.858 38.5785 280.539 36.2667 279.638 33.6084L275.85 34.8916ZM280.577 43.1947C282.685 45.611 285.271 47.5251 288.308 48.9424L290 45.3176C287.437 44.1215 285.31 42.5356 283.591 40.5653L280.577 43.1947ZM288.333 48.9538C291.435 50.3495 294.943 51.02 298.814 51.02V47.02C295.405 47.02 292.473 46.4305 289.975 45.3062L288.333 48.9538ZM298.839 51.0198C302.788 50.9705 306.318 50.2783 309.376 48.8786L307.712 45.2414C305.264 46.3617 302.307 46.9762 298.789 47.0202L298.839 51.0198ZM309.365 48.8838C312.413 47.5122 315.008 45.6171 317.121 43.1947L314.107 40.5653C312.393 42.5296 310.275 44.0878 307.723 45.2362L309.365 48.8838ZM313.876 42.8686L315.906 46.4386L319.383 44.4614L317.353 40.8914L313.876 42.8686ZM357.068 15L355.334 14.0031L354.758 15.0043L355.338 16.0034L357.068 15ZM377.368 50V52H380.84L379.098 48.9966L377.368 50ZM369.248 50L367.515 50.999L368.092 52H369.248V50ZM350.278 17.1L352.01 16.101L351.433 15.1H350.278V17.1ZM333.758 17.1V15.1H331.758V17.1H333.758ZM333.758 50V52H335.758V50H333.758ZM326.758 50H324.758V52H326.758V50ZM326.758 0.999997V-1H324.758V0.999997H326.758ZM333.758 0.999997H335.758V-1H333.758V0.999997ZM333.758 15H331.758V17H333.758V15ZM354.198 15V17H355.345L355.924 16.0099L354.198 15ZM362.388 0.999997V-1H361.241L360.662 -0.00989103L362.388 0.999997ZM365.118 0.999997L366.852 1.99694L368.575 -1H365.118V0.999997ZM355.338 16.0034L375.638 51.0034L379.098 48.9966L358.798 13.9966L355.338 16.0034ZM377.368 48H369.248V52H377.368V48ZM370.98 49.001L352.01 16.101L348.545 18.099L367.515 50.999L370.98 49.001ZM350.278 15.1H333.758V19.1H350.278V15.1ZM331.758 17.1V50H335.758V17.1H331.758ZM333.758 48H326.758V52H333.758V48ZM328.758 50V0.999997H324.758V50H328.758ZM326.758 3H333.758V-1H326.758V3ZM331.758 0.999997V15H335.758V0.999997H331.758ZM333.758 17H354.198V13H333.758V17ZM355.924 16.0099L364.114 2.00988L360.662 -0.00989103L352.472 13.9901L355.924 16.0099ZM362.388 3H365.118V-1H362.388V3ZM363.384 0.00305453L355.334 14.0031L358.802 15.9969L366.852 1.99694L363.384 0.00305453ZM424.056 6.25V4.25H423.126L422.527 4.96075L424.056 6.25ZM387.166 50V52H388.095L388.695 51.2893L387.166 50ZM382.266 50H380.266V52H382.266V50ZM382.266 0.999997V-1H380.266V0.999997H382.266ZM389.266 0.999997H391.266V-1H389.266V0.999997ZM389.266 43.14H387.266V45.14H389.266V43.14ZM390.176 43.14V45.14H391.106L391.705 44.4283L390.176 43.14ZM425.666 0.999997V-1H424.735L424.136 -0.288353L425.666 0.999997ZM431.966 0.999997H433.966V-1H431.966V0.999997ZM431.966 50V52H433.966V50H431.966ZM424.966 50H422.966V52H424.966V50ZM424.966 6.25H426.966V4.25H424.966V6.25ZM422.527 4.96075L385.637 48.7107L388.695 51.2893L425.585 7.53925L422.527 4.96075ZM387.166 48H382.266V52H387.166V48ZM384.266 50V0.999997H380.266V50H384.266ZM382.266 3H389.266V-1H382.266V3ZM387.266 0.999997V43.14H391.266V0.999997H387.266ZM389.266 45.14H390.176V41.14H389.266V45.14ZM391.705 44.4283L427.195 2.28835L424.136 -0.288353L388.646 41.8516L391.705 44.4283ZM425.666 3H431.966V-1H425.666V3ZM429.966 0.999997V50H433.966V0.999997H429.966ZM431.966 48H424.966V52H431.966V48ZM426.966 50V6.25H422.966V50H426.966ZM424.966 4.25H424.056V8.25H424.966V4.25ZM450.857 15H448.857V17H450.857V15ZM478.437 15L480.177 15.986L481.87 13H478.437V15ZM477.247 17.1V19.1H478.413L478.987 18.086L477.247 17.1ZM450.857 17.1V15.1H448.857V17.1H450.857ZM450.857 47.9H448.857V49.9H450.857V47.9ZM489.357 47.9L491.097 48.886L492.79 45.9H489.357V47.9ZM488.167 50V52H489.333L489.907 50.986L488.167 50ZM443.857 50H441.857V52H443.857V50ZM443.857 0.999997V-1H441.857V0.999997H443.857ZM486.557 0.999997L488.297 1.98602L489.99 -1H486.557V0.999997ZM485.367 3.1V5.1H486.533L487.107 4.08602L485.367 3.1ZM450.857 3.1V1.1H448.857V3.1H450.857ZM450.857 17H478.437V13H450.857V17ZM476.697 14.014L475.507 16.114L478.987 18.086L480.177 15.986L476.697 14.014ZM477.247 15.1H450.857V19.1H477.247V15.1ZM448.857 17.1V47.9H452.857V17.1H448.857ZM450.857 49.9H489.357V45.9H450.857V49.9ZM487.617 46.914L486.427 49.014L489.907 50.986L491.097 48.886L487.617 46.914ZM488.167 48H443.857V52H488.167V48ZM445.857 50V0.999997H441.857V50H445.857ZM443.857 3H486.557V-1H443.857V3ZM484.817 0.013974L483.627 2.11398L487.107 4.08602L488.297 1.98602L484.817 0.013974ZM485.367 1.1H450.857V5.1H485.367V1.1ZM448.857 3.1V15H452.857V3.1H448.857Z" fill="#2D2D2D" mask="url(#path-1-outside-1_163_313)"/>
</svg>
